<svg width="20" height="20" viewBox="0 0 20 20" fill="none" xmlns="http://www.w3.org/2000/svg">
<path fill-rule="evenodd" clip-rule="evenodd" d="M18.7071 2.70717C19.0976 2.31664 19.0976 1.68348 18.7071 1.29295C18.3166 0.90243 17.6834 0.90243 17.2929 1.29295L10 8.58585L2.70711 1.29295C2.31658 0.90243 1.68342 0.90243 1.29289 1.29295C0.902369 1.68348 0.902369 2.31664 1.29289 2.70717L8.58579 10.0001L1.29289 17.293C0.90237 17.6835 0.90237 18.3166 1.29289 18.7072C1.68342 19.0977 2.31658 19.0977 2.70711 18.7072L10 11.4143L17.2929 18.7072C17.6834 19.0977 18.3166 19.0977 18.7071 18.7072C19.0976 18.3166 19.0976 17.6835 18.7071 17.293L11.4142 10.0001L18.7071 2.70717Z" fill="#000B26" fill-opacity="0.72"/>
</svg>
