<svg width="157" height="153" viewBox="0 0 157 153" fill="none" xmlns="http://www.w3.org/2000/svg">
<path d="M20.4243 145.828C23.8811 149.453 27.1523 151.792 29.7368 153.64C60.1158 175.355 96.0618 169.026 103.698 167.48C114.979 165.197 136.786 160.784 152.552 142.313C176.408 114.368 172.696 70.3376 154.193 41.2764C150.808 35.9599 132.931 6.45411 96.6001 1.72223C74.6065 -1.14158 48.977 4.63523 30.4151 20.1328C-8.54788 52.6499 -5.77409 118.35 20.4243 145.828Z" fill="#EFEFF4"/>
<path d="M115.098 88.145C115.098 88.145 109.443 71.1951 115.902 64.2128C122.361 57.2305 136.439 49.7676 129.464 25.0772C125.381 10.6227 123.803 4.23711 123.204 1.42805C123.149 1.17266 123.037 0.933344 122.874 0.728858C122.712 0.524372 122.504 0.360275 122.268 0.249432C122.031 0.138589 121.773 0.0840127 121.511 0.0899802C121.25 0.0959477 120.994 0.162297 120.763 0.283827C113.746 3.97634 91.3242 17.1883 91.327 35.2629C91.3307 56.6895 115.098 88.145 115.098 88.145Z" fill="#5FE0BB"/>
<path opacity="0.5" d="M117.038 8.83999C115.347 11.6036 113.94 14.4915 112.622 17.4314L112.136 18.5367L111.672 19.6503C111.362 20.3927 111.054 21.1351 110.771 21.8914C110.181 23.3901 109.657 24.9139 109.126 26.4386C108.634 27.9735 108.127 29.501 107.707 31.0619C107.249 32.6089 106.866 34.1753 106.48 35.7427C105.778 38.8979 105.11 42.042 104.744 45.2835C104.652 46.0936 104.559 46.9038 104.475 47.7148L104.363 50.1564L104.307 51.3777L104.324 52.598L104.373 55.0386L104.559 57.4709L104.652 58.6856L104.807 59.892C104.913 60.6966 105.007 61.504 105.135 62.3048L105.572 64.6982C106.844 71.0633 108.858 77.2382 111.84 83.0345C111.922 83.197 112.064 83.3209 112.236 83.3799C112.409 83.4388 112.597 83.428 112.761 83.3498C112.926 83.2716 113.053 83.1323 113.116 82.9615C113.179 82.7907 113.173 82.6021 113.098 82.436L113.08 82.396C111.81 79.5084 110.729 76.5416 109.843 73.5142C108.947 70.488 108.219 67.4148 107.662 64.3084L107.282 61.9773C107.176 61.1977 107.096 60.4145 106.996 59.635L106.855 58.4639L106.774 57.2872L106.623 54.9328L106.591 52.5794L106.572 51.4027L106.624 50.2279L106.721 47.88C106.795 47.1014 106.891 46.3238 106.974 45.5461C107.112 43.9917 107.411 42.4271 107.649 40.8653C107.763 40.083 107.942 39.3109 108.086 38.5323C108.246 37.7574 108.371 36.9751 108.559 36.2067C109.215 33.1081 110.03 30.0448 110.909 26.9972C111.373 25.4827 111.837 23.9636 112.358 22.4649C112.601 21.7086 112.868 20.9615 113.137 20.2145L113.539 19.0935L113.965 17.9799C115.089 15.0103 116.327 12.0676 117.723 9.23068L117.731 9.21676C117.774 9.12548 117.781 9.02097 117.751 8.92465C117.72 8.82833 117.653 8.74751 117.564 8.69874C117.476 8.64997 117.372 8.63695 117.274 8.66235C117.176 8.68775 117.091 8.74965 117.038 8.83535V8.83999Z" fill="white"/>
<path d="M93.7947 149.037C92.0816 150.016 109.111 125.568 112.589 88.6471C114.227 71.2489 112.893 49.6655 122.177 40.7261C129.903 33.2854 157.969 35.8912 167.167 36.9751C167.425 37.0051 167.668 37.1079 167.87 37.2714C168.071 37.4348 168.222 37.6523 168.304 37.8983C168.387 38.1443 168.397 38.4086 168.335 38.6604C168.273 38.9122 168.14 39.1411 167.952 39.3202C163.824 43.2586 155.045 52.4885 153.168 61.3472C150.693 73.0288 140.248 81.0152 130.608 83.608C120.967 86.2009 115.656 88.4643 111.891 104.384C108.125 120.304 98.6629 146.255 93.7947 149.037Z" fill="#F1F1F1"/>
<path opacity="0.5" d="M154.693 42.6609C148.821 43.3101 143.138 45.1282 137.979 48.008C135.382 49.4468 132.981 51.213 130.834 53.2633C128.699 55.3309 126.823 57.6917 125.385 60.3068L124.85 61.2887C124.675 61.6181 124.529 61.9615 124.368 62.2974C124.206 62.6333 124.047 62.9758 123.903 63.3117L123.479 64.3223C122.913 65.6667 122.354 67.0157 121.803 68.3693C120.705 71.0754 119.651 73.7975 118.641 76.5357C116.615 82.0109 114.765 87.5576 113.258 93.2137C113.241 93.2831 113.252 93.3563 113.287 93.4182C113.323 93.4802 113.381 93.5261 113.449 93.5466C113.517 93.5671 113.591 93.5606 113.655 93.5283C113.718 93.4961 113.767 93.4406 113.791 93.3734V93.365C114.705 90.6098 115.669 87.8592 116.687 85.1336C117.691 82.4022 118.725 79.6826 119.791 76.9747L121.4 72.9184L123.053 68.8788C123.603 67.5326 124.164 66.1904 124.737 64.8522L125.163 63.8481C125.304 63.5121 125.461 63.1985 125.609 62.8737C125.758 62.5489 125.898 62.2241 126.064 61.9076L126.574 60.9694C127.927 58.4638 129.723 56.2125 131.732 54.1876C132.753 53.1834 133.838 52.2469 134.98 51.3841L135.405 51.0574L135.843 50.7456C136.136 50.5396 136.424 50.3253 136.722 50.1257C137.322 49.7332 137.919 49.3332 138.542 48.9732C141.003 47.4884 143.646 46.3005 146.36 45.3131C149.078 44.3178 151.883 43.579 154.738 43.1063H154.752C154.808 43.0958 154.859 43.0639 154.892 43.0174C154.926 42.9708 154.94 42.9132 154.933 42.8563C154.925 42.7994 154.895 42.7477 154.851 42.7119C154.806 42.676 154.749 42.6587 154.692 42.6637L154.693 42.6609Z" fill="white"/>
<path d="M72.7618 40.0356C73.1859 40.0353 73.5934 39.8701 73.8978 39.5748C74.2023 39.2795 74.38 38.8773 74.3932 38.4534C74.4034 38.1267 74.6141 30.3445 72.2867 22.0454C69.1092 10.7145 62.7004 3.99301 53.7535 2.60843C49.2564 1.9115 45.2512 2.97963 41.8519 5.78033C31.2477 14.5202 30.2482 37.3713 30.2074 38.3401C30.197 38.7691 30.3559 39.1849 30.6496 39.4976C30.9433 39.8104 31.3483 39.995 31.7771 40.0116C32.2058 40.0282 32.6238 39.8754 32.9408 39.5862C33.2578 39.2971 33.4483 38.8948 33.4711 38.4664C33.4795 38.2436 34.4548 16.1016 43.9325 8.298C46.6181 6.08565 49.6666 5.28014 53.2543 5.83601C71.8319 8.71281 71.1378 38.0562 71.1285 38.3522C71.115 38.7845 71.2735 39.2045 71.5692 39.5201C71.865 39.8357 72.2738 40.0211 72.7061 40.0356H72.7618Z" fill="#7B818D"/>
<path d="M114.703 135.87L95.2679 31.3022L37.0155 30.3408L18.2393 142.272H105.73C108.842 142.271 115.161 138.948 114.703 135.87Z" fill="#C2C8D3"/>
<path d="M25.7014 31.3022L37.0156 30.3408L18.2394 142.272H7.01058C6.47706 142.272 5.9503 142.153 5.46859 141.924C4.98688 141.694 4.56229 141.361 4.22573 140.947C3.88918 140.533 3.64908 140.049 3.52289 139.531C3.3967 139.012 3.38759 138.472 3.49623 137.95L25.7014 31.3022Z" fill="#D2D5DF"/>
<path d="M44.3536 39.7953C44.7757 39.7961 45.1816 39.6334 45.4863 39.3414C45.791 39.0493 45.9708 38.6506 45.9878 38.2288C45.9971 38.0061 46.9715 15.864 56.4491 8.06047C59.1347 5.84812 62.1832 5.04261 65.7709 5.59756C84.3206 8.46879 83.6543 37.8187 83.6451 38.1156C83.6379 38.5448 83.7999 38.9595 84.0961 39.2702C84.3924 39.5808 84.799 39.7623 85.228 39.7755C85.657 39.7886 86.074 39.6324 86.3887 39.3405C86.7034 39.0487 86.8906 38.6446 86.9097 38.2159C86.92 37.8883 87.1315 30.107 84.8032 21.8069C81.6257 10.4761 75.217 3.75455 66.2701 2.36997C61.7721 1.67397 57.7687 2.74117 54.3695 5.54281C43.7643 14.2818 42.7621 37.1329 42.7249 38.1017C42.7165 38.3159 42.7504 38.5297 42.8246 38.7308C42.8988 38.9319 43.0119 39.1164 43.1575 39.2738C43.303 39.4312 43.4782 39.5583 43.6729 39.648C43.8676 39.7376 44.0781 39.788 44.2923 39.7962L44.3536 39.7953Z" fill="#7B818D"/>
<path d="M162.918 146.135C162.916 146.755 162.668 147.35 162.229 147.788C161.79 148.227 161.196 148.474 160.575 148.475H33.9163C33.2961 148.474 32.7016 148.227 32.2627 147.788C31.8238 147.35 31.5763 146.756 31.5741 146.136L30.5208 73.348C30.5208 72.0609 32.0362 69.5488 34.8156 69.7372L158.601 66.5328C159.4 66.5117 160.195 66.6532 160.937 66.9486C161.68 67.2439 162.355 67.6871 162.921 68.2511C163.487 68.8152 163.933 69.4883 164.232 70.2299C164.53 70.9714 164.675 71.7657 164.657 72.5648L162.918 146.135Z" fill="#7B818D"/>
<path d="M160.605 143.89C160.602 144.477 160.367 145.038 159.952 145.453C159.537 145.868 158.975 146.102 158.389 146.105H36.971C36.3839 146.104 35.8213 145.87 35.406 145.455C34.9908 145.04 34.7567 144.477 34.755 143.89L33.7602 77.8164C33.8771 73.8399 37.3636 72.4108 39.4766 72.4952L158.113 69.3122C158.675 69.2973 159.234 69.3969 159.757 69.6048C160.279 69.8128 160.754 70.1248 161.152 70.5219C161.55 70.919 161.863 71.3929 162.072 71.9148C162.282 72.4367 162.382 72.9957 162.369 73.5578L160.605 143.89Z" fill="white"/>
<path d="M36.0676 112.499C36.1104 112.498 36.1526 112.489 36.192 112.472C36.2313 112.456 36.2669 112.431 36.2968 112.401C36.3268 112.37 36.3503 112.334 36.3663 112.294C36.3822 112.254 36.3901 112.212 36.3896 112.169L36.3107 106.81C36.3093 106.725 36.2744 106.643 36.2137 106.583C36.153 106.524 36.0712 106.49 35.9859 106.49C35.8997 106.491 35.8176 106.527 35.7575 106.589C35.6975 106.651 35.6645 106.734 35.6658 106.82L35.7446 112.178C35.7459 112.263 35.7804 112.345 35.8407 112.405C35.9011 112.464 35.9826 112.498 36.0676 112.499Z" fill="#F1F1F1"/>
<path d="M35.875 99.3663C35.9177 99.3657 35.9598 99.3567 35.999 99.3398C36.0381 99.323 36.0736 99.2985 36.1033 99.2679C36.1331 99.2373 36.1565 99.2012 36.1722 99.1616C36.188 99.1219 36.1958 99.0796 36.1952 99.0369L35.8936 78.5133C35.8991 77.2939 36.2648 76.3204 36.9933 75.6263C38.3454 74.3271 40.4918 74.3976 40.5828 74.4013L78.5017 73.3805C78.5877 73.3781 78.6693 73.3416 78.7284 73.2792C78.7876 73.2167 78.8195 73.1333 78.8173 73.0473C78.818 73.0041 78.8098 72.9613 78.7931 72.9214C78.7764 72.8816 78.7516 72.8456 78.7202 72.8159C78.6889 72.7861 78.6518 72.7632 78.6111 72.7486C78.5705 72.734 78.5272 72.7279 78.4841 72.7309L40.5874 73.7517C40.3517 73.7378 38.066 73.6979 36.5441 75.1567C35.6885 75.977 35.2505 77.1055 35.2449 78.5151L35.5465 99.0462C35.5477 99.1322 35.583 99.2141 35.6446 99.2742C35.7062 99.3342 35.789 99.3673 35.875 99.3663Z" fill="#F1F1F1"/>
<path d="M168.462 154.263L28.096 154.263C27.4605 154.263 26.9453 153.748 26.9453 153.112V149.272C26.9453 148.637 27.4605 148.122 28.096 148.122L168.462 148.122C169.097 148.122 169.612 148.637 169.612 149.272V153.112C169.612 153.748 169.097 154.263 168.462 154.263Z" fill="#A8B2BC"/>
<path opacity="0.45" d="M124.999 95.4066H153.921C156.113 95.4066 157.891 97.184 157.891 99.3766V128.768C157.891 130.961 156.113 132.738 153.921 132.738H124.999C122.806 132.738 121.029 130.961 121.029 128.768V99.3766C121.029 97.184 122.806 95.4066 124.999 95.4066Z" fill="#D2D5DF"/>
<path opacity="0.45" d="M83.7398 95.2274H112.662C114.854 95.2274 116.632 97.0048 116.632 99.1974V128.589C116.632 130.782 114.854 132.559 112.662 132.559H83.7398C81.5472 132.559 79.7698 130.782 79.7698 128.589V99.1974C79.7698 97.0048 81.5472 95.2274 83.7398 95.2274Z" fill="#D2D5DF"/>
<path opacity="0.45" d="M42.481 95.4066H71.4031C73.5956 95.4066 75.373 97.184 75.373 99.3766V128.768C75.373 130.961 73.5956 132.738 71.4031 132.738H42.481C40.2884 132.738 38.511 130.961 38.511 128.768V99.3766C38.511 97.184 40.2884 95.4066 42.481 95.4066Z" fill="#D2D5DF"/>
<path d="M128.307 98.6249C128.394 98.2896 128.589 97.9925 128.863 97.7803C129.137 97.5682 129.474 97.453 129.82 97.4529H148.518C148.865 97.453 149.201 97.5682 149.475 97.7803C149.749 97.9925 149.944 98.2896 150.031 98.6249C151.069 102.646 154.752 116.21 155.458 127.686C155.473 127.936 155.411 128.185 155.281 128.399C155.151 128.614 154.958 128.783 154.729 128.885C152.749 129.767 147.377 131.833 143.369 130.326C143.178 130.253 143.009 130.134 142.877 129.979C142.744 129.824 142.653 129.639 142.611 129.439C142.101 127.089 140.244 118.692 139.169 116.066C138.093 118.692 136.237 127.089 135.728 129.439C135.685 129.639 135.593 129.824 135.461 129.979C135.328 130.134 135.159 130.254 134.968 130.326C130.961 131.833 125.589 129.769 123.609 128.885C123.38 128.783 123.187 128.614 123.057 128.399C122.927 128.185 122.865 127.936 122.88 127.686C123.586 116.21 127.268 102.646 128.307 98.6249Z" fill="#19D791"/>
<path d="M150.226 105.503C150.313 105.496 150.395 105.457 150.457 105.394C150.519 105.332 150.557 105.249 150.563 105.162C150.57 105.074 150.545 104.987 150.494 104.916C150.442 104.844 150.367 104.794 150.281 104.773C147.504 104.35 145.674 103.185 144.841 101.312C144.469 100.475 144.32 99.5561 144.409 98.6444C144.41 98.5549 144.379 98.4681 144.321 98.3999C144.263 98.3317 144.183 98.2866 144.094 98.2731C144.006 98.2595 143.915 98.2784 143.84 98.3261C143.764 98.3739 143.708 98.4474 143.682 98.533C143.572 99.5841 143.74 100.646 144.17 101.611C144.819 103.066 146.382 104.922 150.17 105.5C150.189 105.502 150.207 105.503 150.226 105.503Z" fill="white"/>
<path d="M128.579 104.902H128.599C130.826 104.786 132.719 103.656 134.087 101.634C134.711 100.708 135.181 99.6861 135.479 98.6092C135.499 98.5598 135.508 98.5067 135.505 98.4534C135.503 98.4002 135.489 98.3482 135.465 98.3007C135.441 98.2533 135.407 98.2117 135.365 98.1787C135.323 98.1457 135.275 98.122 135.223 98.1094C135.171 98.0967 135.117 98.0954 135.065 98.1054C135.013 98.1154 134.963 98.1365 134.92 98.1674C134.876 98.1983 134.84 98.2381 134.813 98.2842C134.787 98.3303 134.77 98.3817 134.765 98.4347C134.483 99.4326 134.044 100.38 133.465 101.24C132.216 103.078 130.566 104.063 128.561 104.167C128.473 104.182 128.394 104.229 128.337 104.297C128.281 104.366 128.251 104.453 128.253 104.542C128.256 104.631 128.29 104.716 128.35 104.782C128.409 104.848 128.491 104.89 128.579 104.901V104.902Z" fill="white"/>
<path d="M138.2 106.906H138.241L139.038 106.814C139.57 106.755 140.062 106.502 140.419 106.103C140.776 105.704 140.973 105.188 140.973 104.652V98.5868C140.96 98.4984 140.916 98.4174 140.848 98.3588C140.781 98.3003 140.695 98.268 140.605 98.268C140.516 98.268 140.429 98.3003 140.362 98.3588C140.294 98.4174 140.25 98.4984 140.238 98.5868V104.652C140.238 105.007 140.108 105.349 139.871 105.613C139.635 105.877 139.309 106.045 138.957 106.083L138.16 106.176C138.073 106.195 137.996 106.243 137.943 106.314C137.889 106.384 137.862 106.471 137.867 106.559C137.872 106.647 137.908 106.731 137.969 106.795C138.03 106.859 138.112 106.899 138.2 106.908V106.906Z" fill="white"/>
<path d="M123.986 127.738C124.02 127.738 124.053 127.725 124.078 127.701C124.102 127.678 124.117 127.646 124.119 127.612L124.13 127.412C124.132 127.377 124.12 127.342 124.096 127.316C124.073 127.289 124.039 127.273 124.004 127.271C123.968 127.269 123.934 127.282 123.907 127.305C123.881 127.329 123.865 127.362 123.863 127.398L123.853 127.597C123.852 127.615 123.854 127.632 123.86 127.649C123.865 127.666 123.874 127.681 123.886 127.694C123.898 127.707 123.912 127.718 123.928 127.725C123.944 127.733 123.961 127.737 123.979 127.738H123.986ZM124.023 127.072C124.057 127.072 124.09 127.058 124.115 127.035C124.139 127.012 124.154 126.98 124.156 126.946L124.168 126.746C124.17 126.728 124.169 126.71 124.164 126.692C124.158 126.675 124.15 126.659 124.138 126.645C124.126 126.631 124.112 126.619 124.096 126.611C124.08 126.603 124.062 126.598 124.044 126.597C124.026 126.596 124.008 126.598 123.99 126.605C123.973 126.611 123.958 126.62 123.944 126.633C123.931 126.645 123.92 126.66 123.913 126.677C123.906 126.693 123.902 126.711 123.902 126.729L123.89 126.93C123.889 126.947 123.891 126.965 123.897 126.981C123.902 126.998 123.911 127.013 123.923 127.026C123.935 127.04 123.949 127.05 123.965 127.058C123.98 127.066 123.998 127.07 124.015 127.071L124.023 127.072ZM124.064 126.405C124.098 126.405 124.131 126.392 124.156 126.368C124.181 126.345 124.196 126.313 124.198 126.279L124.211 126.08C124.213 126.044 124.201 126.009 124.178 125.983C124.155 125.956 124.121 125.94 124.086 125.937C124.051 125.935 124.016 125.947 123.989 125.97C123.962 125.994 123.946 126.027 123.944 126.062L123.931 126.263C123.929 126.28 123.932 126.298 123.937 126.314C123.943 126.331 123.952 126.346 123.964 126.36C123.975 126.373 123.99 126.384 124.005 126.391C124.021 126.399 124.038 126.404 124.056 126.405H124.064ZM124.11 125.738C124.143 125.738 124.176 125.725 124.2 125.702C124.225 125.679 124.24 125.648 124.242 125.614L124.256 125.414C124.257 125.38 124.245 125.346 124.222 125.321C124.199 125.295 124.167 125.279 124.133 125.277C124.098 125.274 124.064 125.285 124.037 125.307C124.011 125.329 123.994 125.361 123.99 125.395L123.976 125.594C123.975 125.612 123.977 125.63 123.982 125.646C123.988 125.663 123.996 125.678 124.008 125.692C124.019 125.705 124.033 125.716 124.049 125.724C124.065 125.732 124.082 125.736 124.099 125.737L124.11 125.738ZM124.158 125.072C124.192 125.072 124.224 125.059 124.249 125.036C124.274 125.013 124.289 124.982 124.292 124.949L124.306 124.748C124.308 124.713 124.296 124.68 124.273 124.654C124.25 124.628 124.218 124.612 124.183 124.609C124.149 124.606 124.114 124.617 124.088 124.639C124.061 124.662 124.044 124.693 124.04 124.728L124.024 124.928C124.022 124.963 124.033 124.998 124.056 125.025C124.08 125.052 124.112 125.068 124.148 125.071L124.158 125.072ZM124.211 124.406C124.244 124.406 124.276 124.393 124.301 124.37C124.326 124.348 124.341 124.316 124.344 124.283L124.36 124.084C124.363 124.048 124.352 124.013 124.329 123.986C124.306 123.959 124.274 123.942 124.238 123.939C124.203 123.936 124.168 123.948 124.141 123.97C124.114 123.993 124.097 124.026 124.094 124.061L124.077 124.261C124.074 124.296 124.086 124.331 124.109 124.358C124.132 124.385 124.164 124.402 124.2 124.405L124.211 124.406ZM124.267 123.739C124.301 123.739 124.333 123.727 124.358 123.705C124.382 123.682 124.397 123.651 124.4 123.618L124.418 123.418C124.421 123.383 124.41 123.348 124.387 123.321C124.365 123.294 124.332 123.277 124.297 123.274C124.262 123.27 124.227 123.281 124.199 123.304C124.172 123.327 124.155 123.36 124.151 123.395L124.134 123.595C124.132 123.612 124.134 123.63 124.14 123.646C124.145 123.663 124.153 123.679 124.165 123.692C124.176 123.706 124.19 123.717 124.205 123.725C124.221 123.733 124.238 123.738 124.255 123.739H124.267ZM124.328 123.074C124.361 123.074 124.393 123.062 124.418 123.039C124.442 123.017 124.457 122.986 124.46 122.953L124.479 122.754C124.482 122.736 124.481 122.717 124.477 122.699C124.472 122.682 124.464 122.665 124.453 122.65C124.442 122.636 124.428 122.624 124.412 122.615C124.396 122.606 124.378 122.601 124.36 122.599C124.342 122.597 124.323 122.599 124.306 122.605C124.288 122.611 124.272 122.62 124.258 122.632C124.245 122.644 124.234 122.659 124.226 122.676C124.218 122.692 124.214 122.71 124.214 122.729L124.194 122.928C124.191 122.964 124.202 122.999 124.225 123.026C124.247 123.053 124.28 123.07 124.315 123.074H124.328ZM124.392 122.41C124.425 122.409 124.457 122.397 124.481 122.375C124.506 122.352 124.521 122.322 124.525 122.289L124.545 122.089C124.547 122.072 124.545 122.054 124.54 122.037C124.535 122.021 124.527 122.005 124.515 121.991C124.504 121.978 124.491 121.966 124.475 121.958C124.46 121.95 124.443 121.945 124.425 121.943C124.408 121.941 124.39 121.943 124.373 121.948C124.356 121.953 124.341 121.961 124.327 121.972C124.313 121.983 124.302 121.997 124.294 122.013C124.286 122.028 124.28 122.045 124.279 122.062L124.259 122.262C124.257 122.279 124.259 122.297 124.264 122.314C124.269 122.331 124.277 122.347 124.289 122.36C124.3 122.374 124.313 122.385 124.329 122.393C124.344 122.402 124.361 122.407 124.379 122.409L124.392 122.41ZM124.46 121.744C124.493 121.745 124.524 121.733 124.549 121.711C124.574 121.689 124.589 121.658 124.592 121.625L124.614 121.426C124.616 121.392 124.604 121.358 124.582 121.332C124.56 121.305 124.529 121.289 124.495 121.285C124.46 121.281 124.426 121.291 124.399 121.312C124.372 121.333 124.354 121.363 124.348 121.397L124.327 121.597C124.323 121.632 124.334 121.667 124.356 121.695C124.378 121.722 124.41 121.74 124.446 121.744H124.46ZM124.532 121.081C124.565 121.08 124.596 121.068 124.621 121.046C124.645 121.024 124.661 120.994 124.665 120.962L124.687 120.762C124.691 120.727 124.681 120.692 124.658 120.664C124.636 120.636 124.604 120.618 124.569 120.614C124.533 120.61 124.498 120.621 124.47 120.643C124.442 120.665 124.425 120.697 124.421 120.733L124.398 120.932C124.395 120.967 124.405 121.003 124.427 121.03C124.45 121.058 124.482 121.076 124.517 121.08L124.532 121.081ZM124.607 120.416C124.64 120.416 124.671 120.404 124.696 120.382C124.72 120.361 124.736 120.331 124.74 120.298L124.763 120.1C124.767 120.065 124.757 120.029 124.735 120.001C124.713 119.973 124.681 119.955 124.646 119.951C124.611 119.947 124.575 119.957 124.548 119.979C124.52 120.001 124.502 120.033 124.498 120.068L124.474 120.268C124.472 120.285 124.474 120.303 124.478 120.32C124.483 120.336 124.491 120.352 124.502 120.366C124.513 120.38 124.526 120.391 124.542 120.399C124.557 120.408 124.574 120.413 124.591 120.415L124.607 120.416ZM124.687 119.753C124.719 119.753 124.751 119.741 124.775 119.719C124.799 119.698 124.815 119.668 124.819 119.636L124.844 119.437C124.848 119.402 124.838 119.366 124.817 119.338C124.795 119.31 124.763 119.292 124.728 119.288C124.693 119.283 124.657 119.293 124.629 119.315C124.601 119.337 124.583 119.369 124.578 119.404L124.553 119.603C124.551 119.621 124.553 119.638 124.557 119.655C124.562 119.672 124.57 119.688 124.581 119.702C124.592 119.716 124.605 119.727 124.621 119.736C124.636 119.744 124.653 119.75 124.67 119.752L124.687 119.753ZM124.769 119.09C124.802 119.09 124.834 119.078 124.858 119.057C124.882 119.035 124.898 119.005 124.902 118.973L124.927 118.775C124.929 118.741 124.919 118.707 124.897 118.681C124.875 118.655 124.845 118.638 124.811 118.633C124.777 118.629 124.743 118.638 124.716 118.658C124.688 118.677 124.669 118.707 124.663 118.74L124.637 118.94C124.635 118.957 124.636 118.975 124.64 118.992C124.645 119.009 124.653 119.025 124.664 119.039C124.675 119.052 124.688 119.064 124.703 119.073C124.719 119.081 124.735 119.087 124.753 119.089L124.769 119.09ZM124.857 118.428C124.889 118.428 124.92 118.416 124.945 118.394C124.969 118.373 124.984 118.344 124.988 118.312L125.015 118.113C125.019 118.095 125.019 118.077 125.015 118.059C125.011 118.041 125.003 118.024 124.993 118.01C124.982 117.995 124.968 117.982 124.953 117.973C124.937 117.964 124.92 117.958 124.902 117.955C124.884 117.953 124.865 117.954 124.848 117.959C124.83 117.964 124.814 117.972 124.8 117.984C124.786 117.995 124.774 118.01 124.766 118.026C124.757 118.042 124.752 118.059 124.751 118.078L124.724 118.276C124.722 118.294 124.723 118.311 124.727 118.328C124.732 118.345 124.74 118.361 124.75 118.375C124.761 118.389 124.774 118.401 124.79 118.41C124.805 118.419 124.822 118.424 124.839 118.427L124.857 118.428ZM124.95 117.766C124.982 117.766 125.013 117.754 125.037 117.733C125.062 117.712 125.078 117.683 125.082 117.651L125.11 117.452C125.113 117.434 125.113 117.416 125.109 117.399C125.105 117.381 125.097 117.365 125.087 117.35C125.076 117.336 125.063 117.323 125.047 117.314C125.032 117.305 125.015 117.299 124.997 117.296C124.979 117.294 124.961 117.295 124.944 117.3C124.926 117.304 124.91 117.312 124.896 117.323C124.882 117.335 124.87 117.348 124.862 117.364C124.853 117.38 124.847 117.397 124.846 117.415L124.818 117.614C124.815 117.631 124.816 117.649 124.821 117.666C124.825 117.682 124.833 117.698 124.843 117.712C124.854 117.726 124.867 117.738 124.882 117.747C124.897 117.756 124.914 117.762 124.931 117.764L124.95 117.766ZM125.042 117.104C125.074 117.104 125.105 117.093 125.13 117.072C125.154 117.051 125.17 117.022 125.175 116.99L125.204 116.791C125.209 116.756 125.2 116.721 125.179 116.692C125.158 116.664 125.126 116.645 125.091 116.64C125.056 116.635 125.02 116.644 124.992 116.665C124.963 116.686 124.944 116.717 124.939 116.752L124.911 116.951C124.908 116.968 124.909 116.986 124.913 117.003C124.917 117.02 124.925 117.036 124.935 117.05C124.946 117.064 124.959 117.076 124.974 117.085C124.989 117.094 125.006 117.1 125.023 117.102L125.042 117.104ZM125.141 116.443C125.173 116.443 125.204 116.432 125.228 116.411C125.252 116.39 125.268 116.361 125.272 116.329L125.303 116.132C125.306 116.114 125.305 116.097 125.301 116.079C125.297 116.062 125.289 116.046 125.279 116.032C125.258 116.004 125.226 115.984 125.191 115.979C125.156 115.974 125.12 115.982 125.092 116.003C125.063 116.024 125.044 116.056 125.039 116.091L125.008 116.289C125.003 116.324 125.012 116.36 125.033 116.389C125.054 116.417 125.085 116.436 125.12 116.442L125.141 116.443ZM125.243 115.783C125.275 115.783 125.305 115.772 125.329 115.751C125.354 115.73 125.37 115.702 125.375 115.67L125.406 115.473C125.412 115.438 125.403 115.402 125.382 115.373C125.362 115.344 125.33 115.325 125.295 115.319C125.26 115.314 125.224 115.322 125.195 115.343C125.167 115.364 125.147 115.395 125.142 115.43L125.111 115.629C125.108 115.646 125.109 115.664 125.113 115.681C125.117 115.698 125.124 115.714 125.135 115.728C125.145 115.742 125.158 115.754 125.173 115.763C125.188 115.772 125.204 115.778 125.221 115.781C125.228 115.782 125.235 115.783 125.242 115.783H125.243ZM125.349 115.123C125.38 115.123 125.411 115.111 125.435 115.091C125.459 115.07 125.475 115.042 125.48 115.011L125.513 114.814C125.516 114.796 125.516 114.778 125.513 114.761C125.509 114.743 125.502 114.727 125.492 114.712C125.481 114.697 125.468 114.685 125.453 114.675C125.438 114.666 125.421 114.659 125.404 114.656C125.386 114.653 125.368 114.654 125.35 114.658C125.333 114.662 125.317 114.67 125.302 114.681C125.288 114.691 125.276 114.705 125.267 114.72C125.258 114.735 125.252 114.753 125.249 114.77L125.217 114.968C125.214 114.985 125.214 115.003 125.218 115.02C125.222 115.037 125.23 115.053 125.24 115.068C125.25 115.082 125.263 115.094 125.278 115.103C125.293 115.112 125.31 115.118 125.327 115.121C125.334 115.123 125.341 115.123 125.348 115.123H125.349ZM125.458 114.464C125.49 114.464 125.52 114.453 125.544 114.432C125.568 114.412 125.584 114.384 125.59 114.353L125.623 114.155C125.629 114.12 125.621 114.084 125.6 114.055C125.58 114.026 125.549 114.007 125.514 114.001C125.479 113.995 125.443 114.003 125.414 114.024C125.385 114.044 125.366 114.076 125.36 114.11L125.326 114.308C125.323 114.325 125.324 114.343 125.328 114.36C125.331 114.378 125.339 114.394 125.349 114.408C125.359 114.422 125.372 114.435 125.387 114.444C125.402 114.453 125.418 114.459 125.436 114.462L125.458 114.464ZM125.571 113.805C125.603 113.805 125.633 113.794 125.657 113.774C125.681 113.754 125.698 113.726 125.703 113.695L125.737 113.498C125.744 113.463 125.736 113.427 125.715 113.398C125.695 113.369 125.664 113.349 125.629 113.343C125.594 113.337 125.558 113.345 125.529 113.365C125.5 113.386 125.48 113.417 125.474 113.452L125.44 113.649C125.436 113.666 125.437 113.684 125.441 113.701C125.444 113.718 125.452 113.735 125.462 113.749C125.472 113.763 125.485 113.775 125.499 113.785C125.514 113.794 125.531 113.8 125.548 113.803C125.555 113.805 125.563 113.805 125.57 113.805H125.571ZM125.688 113.148C125.72 113.148 125.75 113.137 125.774 113.117C125.798 113.097 125.814 113.069 125.82 113.038L125.855 112.841C125.859 112.823 125.86 112.805 125.856 112.787C125.853 112.77 125.846 112.753 125.837 112.738C125.827 112.723 125.814 112.71 125.799 112.7C125.784 112.69 125.767 112.683 125.749 112.68C125.731 112.677 125.713 112.677 125.696 112.681C125.678 112.685 125.661 112.692 125.647 112.703C125.632 112.713 125.62 112.727 125.611 112.742C125.601 112.758 125.595 112.775 125.593 112.793L125.556 112.99C125.55 113.025 125.558 113.061 125.578 113.09C125.598 113.119 125.629 113.139 125.664 113.145L125.688 113.148ZM125.809 112.49C125.84 112.49 125.87 112.48 125.894 112.46C125.918 112.44 125.935 112.412 125.941 112.382L125.978 112.185C125.984 112.15 125.977 112.114 125.957 112.085C125.937 112.055 125.906 112.035 125.871 112.029C125.837 112.022 125.801 112.029 125.771 112.049C125.742 112.069 125.722 112.1 125.715 112.135L125.678 112.332C125.671 112.367 125.679 112.403 125.699 112.432C125.719 112.462 125.75 112.482 125.785 112.488C125.792 112.49 125.8 112.49 125.808 112.49H125.809ZM125.934 111.834C125.965 111.834 125.995 111.823 126.019 111.803C126.043 111.783 126.059 111.756 126.065 111.726L126.103 111.529C126.11 111.494 126.102 111.458 126.083 111.428C126.063 111.399 126.032 111.379 125.997 111.372C125.962 111.365 125.926 111.373 125.897 111.392C125.867 111.412 125.847 111.443 125.84 111.478L125.802 111.675C125.799 111.693 125.799 111.71 125.803 111.727C125.806 111.745 125.813 111.761 125.823 111.775C125.833 111.79 125.845 111.802 125.86 111.812C125.875 111.821 125.891 111.828 125.908 111.831C125.916 111.833 125.925 111.834 125.933 111.834H125.934ZM126.062 111.178C126.093 111.178 126.123 111.168 126.147 111.148C126.171 111.129 126.187 111.101 126.193 111.071L126.233 110.875C126.236 110.857 126.236 110.84 126.233 110.822C126.23 110.805 126.223 110.789 126.213 110.774C126.203 110.759 126.191 110.747 126.176 110.737C126.162 110.727 126.145 110.72 126.128 110.717C126.111 110.713 126.093 110.713 126.076 110.717C126.059 110.72 126.042 110.727 126.027 110.737C126.013 110.746 126 110.759 125.99 110.773C125.981 110.788 125.974 110.804 125.97 110.822L125.931 111.018C125.928 111.036 125.928 111.053 125.931 111.071C125.934 111.088 125.941 111.104 125.951 111.119C125.961 111.134 125.973 111.146 125.988 111.156C126.003 111.166 126.019 111.173 126.036 111.176C126.044 111.178 126.053 111.178 126.061 111.178H126.062ZM126.195 110.528C126.226 110.528 126.255 110.518 126.279 110.498C126.303 110.479 126.32 110.452 126.326 110.422L126.366 110.225C126.372 110.191 126.364 110.155 126.345 110.126C126.325 110.098 126.295 110.078 126.261 110.071C126.227 110.064 126.191 110.07 126.162 110.089C126.133 110.108 126.112 110.137 126.104 110.171L126.064 110.368C126.057 110.403 126.064 110.439 126.083 110.468C126.103 110.498 126.133 110.518 126.168 110.526C126.177 110.525 126.186 110.523 126.194 110.52L126.195 110.528ZM126.331 109.879C126.362 109.879 126.391 109.868 126.415 109.849C126.439 109.83 126.455 109.803 126.461 109.773L126.503 109.577C126.508 109.543 126.501 109.509 126.481 109.481C126.462 109.453 126.433 109.433 126.399 109.426C126.366 109.418 126.331 109.424 126.302 109.442C126.273 109.46 126.251 109.488 126.242 109.521L126.2 109.717C126.197 109.735 126.197 109.752 126.2 109.77C126.203 109.787 126.209 109.803 126.219 109.818C126.229 109.833 126.241 109.845 126.255 109.855C126.27 109.865 126.286 109.872 126.303 109.876L126.331 109.879ZM126.471 109.229C126.502 109.229 126.532 109.219 126.555 109.199C126.579 109.18 126.595 109.153 126.601 109.123L126.644 108.929C126.649 108.911 126.65 108.893 126.647 108.875C126.644 108.857 126.638 108.84 126.629 108.825C126.62 108.809 126.607 108.796 126.592 108.786C126.578 108.775 126.561 108.768 126.544 108.764C126.526 108.76 126.508 108.76 126.49 108.763C126.472 108.766 126.456 108.773 126.441 108.783C126.426 108.793 126.413 108.806 126.403 108.821C126.393 108.836 126.386 108.853 126.383 108.871L126.341 109.067C126.337 109.084 126.336 109.102 126.339 109.119C126.343 109.136 126.349 109.153 126.359 109.167C126.368 109.182 126.38 109.195 126.395 109.205C126.409 109.215 126.426 109.222 126.443 109.225C126.452 109.225 126.461 109.224 126.471 109.221L126.471 109.229ZM126.615 108.58C126.646 108.579 126.675 108.569 126.699 108.55C126.722 108.531 126.739 108.504 126.745 108.475L126.79 108.28C126.798 108.245 126.791 108.209 126.772 108.179C126.753 108.149 126.723 108.127 126.689 108.119C126.654 108.112 126.618 108.118 126.588 108.137C126.558 108.156 126.537 108.186 126.529 108.22L126.484 108.416C126.477 108.451 126.483 108.487 126.502 108.517C126.521 108.547 126.551 108.568 126.586 108.576C126.596 108.573 126.605 108.569 126.614 108.564L126.615 108.58ZM126.764 107.93C126.794 107.93 126.823 107.92 126.846 107.901C126.87 107.882 126.887 107.856 126.894 107.827L126.938 107.632C126.943 107.615 126.945 107.597 126.942 107.579C126.94 107.561 126.934 107.543 126.925 107.528C126.916 107.512 126.904 107.499 126.889 107.488C126.875 107.477 126.858 107.469 126.84 107.465C126.823 107.461 126.805 107.461 126.787 107.464C126.769 107.467 126.752 107.473 126.737 107.483C126.722 107.493 126.709 107.506 126.699 107.521C126.689 107.536 126.682 107.553 126.678 107.571L126.633 107.767C126.629 107.784 126.628 107.802 126.631 107.819C126.634 107.836 126.64 107.853 126.65 107.868C126.659 107.883 126.671 107.896 126.685 107.906C126.7 107.916 126.716 107.923 126.733 107.927C126.743 107.923 126.752 107.918 126.76 107.911L126.764 107.93ZM126.915 107.28C126.945 107.281 126.975 107.271 126.998 107.252C127.022 107.233 127.038 107.207 127.045 107.177L127.091 106.983C127.096 106.966 127.097 106.948 127.095 106.931C127.092 106.913 127.086 106.896 127.077 106.881C127.068 106.865 127.056 106.852 127.041 106.841C127.027 106.831 127.011 106.823 126.993 106.819C126.976 106.815 126.958 106.814 126.94 106.817C126.923 106.82 126.906 106.827 126.891 106.836C126.876 106.846 126.863 106.858 126.853 106.873C126.842 106.887 126.835 106.904 126.832 106.921L126.785 107.116C126.777 107.151 126.783 107.187 126.802 107.217C126.82 107.247 126.85 107.269 126.884 107.277C126.895 107.273 126.905 107.268 126.914 107.261L126.915 107.28ZM127.072 106.631C127.102 106.631 127.131 106.621 127.154 106.602C127.177 106.584 127.194 106.558 127.201 106.529L127.249 106.335C127.258 106.3 127.252 106.264 127.234 106.234C127.215 106.203 127.186 106.181 127.151 106.173C127.117 106.164 127.08 106.17 127.05 106.188C127.02 106.207 126.998 106.236 126.989 106.271L126.942 106.466C126.938 106.483 126.937 106.5 126.94 106.518C126.942 106.535 126.949 106.552 126.958 106.567C126.967 106.582 126.979 106.595 126.993 106.605C127.007 106.616 127.023 106.623 127.04 106.627C127.051 106.623 127.062 106.618 127.071 106.611L127.072 106.631ZM127.231 105.981C127.261 105.981 127.29 105.971 127.314 105.953C127.337 105.935 127.354 105.909 127.361 105.88L127.411 105.686C127.419 105.652 127.414 105.615 127.396 105.585C127.378 105.554 127.348 105.532 127.314 105.523C127.279 105.515 127.243 105.52 127.212 105.538C127.182 105.556 127.159 105.586 127.151 105.62L127.102 105.815C127.097 105.835 127.096 105.855 127.101 105.875C127.105 105.895 127.113 105.914 127.126 105.93C127.138 105.946 127.154 105.959 127.173 105.968C127.191 105.977 127.211 105.981 127.231 105.981ZM127.397 105.332C127.426 105.332 127.455 105.322 127.478 105.304C127.502 105.285 127.518 105.26 127.526 105.231L127.576 105.037C127.587 105.003 127.584 104.966 127.568 104.933C127.552 104.901 127.523 104.877 127.489 104.865C127.455 104.854 127.417 104.857 127.385 104.873C127.353 104.889 127.328 104.918 127.317 104.952L127.267 105.146C127.258 105.18 127.262 105.216 127.28 105.246C127.297 105.277 127.326 105.299 127.36 105.308C127.371 105.313 127.383 105.315 127.396 105.315L127.397 105.332ZM127.566 104.682C127.595 104.682 127.624 104.672 127.647 104.654C127.67 104.636 127.687 104.611 127.695 104.583L127.746 104.389C127.753 104.355 127.747 104.32 127.729 104.291C127.711 104.262 127.683 104.24 127.649 104.231C127.616 104.223 127.581 104.227 127.551 104.243C127.521 104.26 127.498 104.287 127.488 104.32L127.436 104.514C127.426 104.548 127.431 104.584 127.448 104.615C127.466 104.645 127.495 104.668 127.528 104.677C127.541 104.676 127.553 104.673 127.565 104.668L127.566 104.682ZM127.738 104.032C127.768 104.032 127.796 104.023 127.82 104.005C127.843 103.987 127.86 103.962 127.867 103.933L127.92 103.74C127.929 103.706 127.925 103.669 127.907 103.639C127.89 103.608 127.861 103.585 127.826 103.576C127.792 103.566 127.756 103.571 127.725 103.589C127.694 103.606 127.671 103.635 127.662 103.67L127.609 103.864C127.6 103.898 127.605 103.934 127.622 103.965C127.639 103.995 127.668 104.018 127.702 104.028C127.714 104.028 127.726 104.027 127.737 104.024L127.738 104.032ZM127.916 103.383C127.945 103.383 127.973 103.375 127.996 103.358C128.019 103.341 128.036 103.317 128.044 103.29L128.099 103.097C128.104 103.08 128.105 103.062 128.103 103.045C128.101 103.027 128.096 103.011 128.087 102.995C128.078 102.98 128.067 102.966 128.053 102.955C128.039 102.945 128.023 102.937 128.006 102.932C127.989 102.927 127.972 102.926 127.954 102.928C127.937 102.93 127.92 102.935 127.905 102.944C127.889 102.953 127.876 102.964 127.865 102.978C127.854 102.992 127.846 103.008 127.841 103.025L127.787 103.219C127.778 103.253 127.782 103.289 127.8 103.32C127.817 103.351 127.846 103.373 127.88 103.383C127.892 103.382 127.904 103.379 127.915 103.374L127.916 103.383ZM128.102 102.741C128.13 102.741 128.158 102.732 128.181 102.715C128.205 102.698 128.222 102.675 128.231 102.648L128.286 102.456C128.293 102.423 128.287 102.388 128.27 102.359C128.253 102.33 128.225 102.308 128.192 102.299C128.16 102.289 128.125 102.293 128.095 102.308C128.064 102.323 128.041 102.35 128.03 102.382L127.974 102.575C127.968 102.594 127.967 102.615 127.971 102.636C127.975 102.656 127.983 102.675 127.996 102.691C128.008 102.708 128.024 102.721 128.043 102.731C128.061 102.74 128.081 102.745 128.102 102.745V102.741ZM128.288 102.098C128.316 102.099 128.344 102.09 128.367 102.073C128.39 102.057 128.407 102.033 128.416 102.006L128.473 101.814C128.482 101.78 128.478 101.744 128.461 101.713C128.444 101.683 128.416 101.66 128.382 101.65C128.349 101.64 128.313 101.644 128.282 101.66C128.251 101.677 128.228 101.704 128.217 101.737L128.159 101.93C128.155 101.947 128.153 101.964 128.155 101.982C128.157 102 128.162 102.017 128.171 102.032C128.18 102.048 128.191 102.061 128.205 102.072C128.219 102.083 128.235 102.091 128.252 102.096C128.263 102.096 128.274 102.096 128.285 102.094L128.288 102.098ZM128.481 101.458C128.509 101.458 128.536 101.449 128.559 101.432C128.582 101.416 128.599 101.392 128.608 101.365L128.667 101.174C128.678 101.14 128.674 101.103 128.657 101.072C128.641 101.041 128.612 101.017 128.578 101.007C128.544 100.996 128.508 101 128.476 101.016C128.445 101.033 128.421 101.061 128.411 101.095L128.352 101.287C128.347 101.304 128.346 101.322 128.348 101.34C128.35 101.358 128.355 101.375 128.364 101.39C128.372 101.406 128.384 101.42 128.398 101.431C128.412 101.442 128.428 101.45 128.445 101.454C128.456 101.455 128.467 101.455 128.478 101.454L128.481 101.458ZM128.678 100.82C128.707 100.82 128.734 100.811 128.757 100.794C128.78 100.777 128.797 100.754 128.805 100.727L128.867 100.536C128.872 100.519 128.874 100.501 128.872 100.484C128.871 100.466 128.866 100.449 128.858 100.434C128.85 100.418 128.839 100.404 128.825 100.393C128.812 100.382 128.796 100.373 128.779 100.368C128.763 100.362 128.745 100.361 128.727 100.362C128.71 100.364 128.693 100.368 128.677 100.377C128.662 100.385 128.648 100.396 128.637 100.409C128.625 100.423 128.617 100.438 128.611 100.455L128.551 100.646C128.546 100.663 128.544 100.681 128.545 100.698C128.547 100.716 128.552 100.733 128.56 100.748C128.568 100.764 128.579 100.778 128.592 100.789C128.606 100.8 128.622 100.809 128.638 100.814C128.651 100.816 128.663 100.816 128.675 100.815L128.678 100.82ZM128.882 100.183C128.911 100.183 128.938 100.174 128.961 100.158C128.984 100.141 129.001 100.117 129.01 100.09L129.072 99.9047C129.078 99.8877 129.082 99.8696 129.081 99.8514C129.081 99.8331 129.076 99.8152 129.069 99.7987C129.061 99.7821 129.05 99.7673 129.036 99.7552C129.023 99.7431 129.007 99.7339 128.989 99.7282C128.972 99.7225 128.954 99.7204 128.936 99.722C128.917 99.7236 128.9 99.729 128.884 99.7377C128.868 99.7464 128.854 99.7583 128.842 99.7727C128.831 99.787 128.823 99.8035 128.818 99.8212L128.755 100.011C128.744 100.045 128.747 100.082 128.764 100.114C128.78 100.145 128.808 100.169 128.842 100.18C128.854 100.182 128.867 100.181 128.88 100.178L128.882 100.183ZM129.094 99.5483C129.122 99.5483 129.15 99.5392 129.172 99.5225C129.195 99.5059 129.212 99.4824 129.22 99.4555L129.285 99.2699C129.292 99.2531 129.295 99.235 129.295 99.2167C129.295 99.1985 129.291 99.1805 129.283 99.1639C129.276 99.1473 129.265 99.1324 129.251 99.1201C129.238 99.1079 129.222 99.0985 129.205 99.0926C129.188 99.0867 129.169 99.0844 129.151 99.0858C129.133 99.0873 129.115 99.0924 129.099 99.1009C129.083 99.1095 129.069 99.1212 129.057 99.1354C129.046 99.1496 129.038 99.166 129.033 99.1836C129.012 99.243 128.99 99.3061 128.968 99.3692C128.962 99.3858 128.959 99.4034 128.961 99.4209C128.962 99.4384 128.966 99.4555 128.974 99.4713C128.982 99.487 128.993 99.501 129.006 99.5125C129.019 99.524 129.035 99.5327 129.051 99.5381C129.064 99.5423 129.078 99.5442 129.091 99.5437L129.094 99.5483ZM129.315 98.9164C129.343 98.9161 129.37 98.907 129.393 98.8903C129.415 98.8736 129.432 98.8503 129.44 98.8236C129.485 98.7001 129.509 98.638 129.509 98.638C129.517 98.6212 129.521 98.6031 129.521 98.5846C129.522 98.5661 129.519 98.5477 129.512 98.5306C129.505 98.5135 129.494 98.498 129.481 98.4851C129.468 98.4722 129.452 98.4623 129.434 98.4558C129.417 98.4494 129.399 98.4466 129.38 98.4477C129.362 98.4487 129.344 98.4536 129.327 98.462C129.311 98.4704 129.296 98.4821 129.284 98.4965C129.273 98.5108 129.264 98.5274 129.259 98.5452C129.259 98.5452 129.234 98.6101 129.189 98.7363C129.177 98.7698 129.178 98.8067 129.194 98.8388C129.209 98.871 129.236 98.8959 129.269 98.908C129.283 98.9113 129.298 98.9125 129.312 98.9117L129.315 98.9164Z" fill="white"/>
<path d="M154.734 127.551H154.743C154.76 127.55 154.777 127.545 154.793 127.537C154.809 127.53 154.823 127.519 154.835 127.506C154.846 127.493 154.855 127.477 154.861 127.461C154.867 127.444 154.869 127.426 154.868 127.409L154.861 127.302C154.857 127.268 154.84 127.237 154.814 127.215C154.788 127.193 154.754 127.182 154.72 127.184C154.686 127.187 154.654 127.202 154.63 127.227C154.607 127.252 154.595 127.285 154.595 127.32L154.602 127.425C154.604 127.459 154.619 127.491 154.643 127.514C154.668 127.537 154.7 127.551 154.734 127.551ZM154.696 126.977H154.705C154.741 126.975 154.774 126.958 154.797 126.931C154.82 126.904 154.831 126.87 154.829 126.834L154.815 126.634C154.812 126.598 154.796 126.565 154.769 126.542C154.742 126.519 154.707 126.508 154.671 126.51C154.636 126.513 154.603 126.53 154.58 126.557C154.557 126.584 154.545 126.619 154.548 126.654L154.563 126.854C154.565 126.887 154.58 126.917 154.604 126.94C154.628 126.963 154.659 126.976 154.692 126.977H154.696ZM154.645 126.311H154.656C154.692 126.308 154.724 126.291 154.747 126.264C154.77 126.237 154.781 126.202 154.779 126.167L154.762 125.967C154.759 125.931 154.742 125.899 154.715 125.876C154.688 125.853 154.653 125.842 154.618 125.845C154.582 125.848 154.55 125.864 154.527 125.891C154.504 125.919 154.493 125.954 154.496 125.989L154.512 126.188C154.515 126.222 154.53 126.253 154.555 126.275C154.58 126.298 154.612 126.311 154.645 126.311ZM154.589 125.646H154.6C154.617 125.644 154.634 125.639 154.65 125.631C154.665 125.623 154.679 125.612 154.69 125.598C154.702 125.585 154.71 125.569 154.716 125.553C154.721 125.536 154.723 125.518 154.721 125.501L154.703 125.3C154.701 125.283 154.696 125.266 154.688 125.25C154.68 125.235 154.669 125.221 154.655 125.21C154.642 125.199 154.626 125.19 154.61 125.185C154.593 125.18 154.575 125.178 154.558 125.18C154.523 125.183 154.49 125.2 154.467 125.227C154.444 125.255 154.433 125.29 154.436 125.325L154.455 125.524C154.458 125.557 154.473 125.589 154.498 125.611C154.523 125.634 154.555 125.647 154.589 125.646V125.646ZM154.526 124.98H154.539C154.575 124.977 154.607 124.959 154.63 124.932C154.652 124.905 154.663 124.87 154.66 124.834L154.641 124.634C154.637 124.599 154.62 124.566 154.592 124.544C154.565 124.521 154.529 124.511 154.494 124.514C154.459 124.518 154.426 124.535 154.404 124.563C154.381 124.59 154.371 124.626 154.374 124.661L154.394 124.859C154.397 124.892 154.412 124.923 154.437 124.945C154.461 124.968 154.493 124.98 154.526 124.98ZM154.46 124.315H154.473C154.491 124.313 154.508 124.308 154.523 124.3C154.539 124.291 154.552 124.28 154.563 124.266C154.575 124.253 154.583 124.237 154.588 124.22C154.593 124.203 154.594 124.186 154.592 124.168L154.572 123.969C154.57 123.951 154.565 123.934 154.556 123.919C154.548 123.903 154.536 123.89 154.523 123.879C154.509 123.868 154.493 123.859 154.476 123.854C154.459 123.85 154.442 123.848 154.424 123.85C154.407 123.852 154.39 123.857 154.374 123.865C154.359 123.874 154.345 123.885 154.334 123.899C154.323 123.913 154.315 123.928 154.31 123.945C154.305 123.962 154.304 123.98 154.306 123.997L154.327 124.196C154.331 124.229 154.346 124.259 154.371 124.281C154.395 124.303 154.427 124.315 154.46 124.315ZM154.388 123.65H154.403C154.438 123.646 154.47 123.629 154.492 123.601C154.515 123.573 154.525 123.538 154.521 123.503L154.499 123.303C154.497 123.285 154.492 123.268 154.483 123.252C154.475 123.237 154.464 123.223 154.45 123.211C154.436 123.2 154.42 123.192 154.403 123.187C154.386 123.182 154.368 123.18 154.35 123.182C154.332 123.184 154.315 123.19 154.3 123.199C154.284 123.207 154.271 123.219 154.26 123.233C154.249 123.248 154.241 123.264 154.236 123.281C154.232 123.298 154.231 123.316 154.233 123.334L154.255 123.532C154.259 123.565 154.275 123.595 154.299 123.617C154.324 123.639 154.355 123.651 154.388 123.65ZM154.311 122.987H154.328C154.363 122.982 154.395 122.964 154.417 122.937C154.439 122.909 154.449 122.873 154.445 122.838L154.421 122.639C154.416 122.604 154.398 122.572 154.371 122.55C154.343 122.528 154.307 122.518 154.272 122.522C154.237 122.526 154.205 122.544 154.183 122.572C154.161 122.6 154.151 122.635 154.155 122.67L154.179 122.869C154.183 122.901 154.198 122.931 154.223 122.953C154.247 122.975 154.278 122.987 154.311 122.987ZM154.231 122.323H154.247C154.264 122.321 154.281 122.316 154.297 122.307C154.312 122.299 154.325 122.287 154.336 122.273C154.347 122.259 154.355 122.244 154.36 122.227C154.365 122.21 154.366 122.192 154.364 122.175L154.339 121.975C154.337 121.958 154.331 121.941 154.322 121.926C154.314 121.911 154.302 121.897 154.288 121.886C154.274 121.876 154.259 121.868 154.242 121.863C154.225 121.858 154.207 121.857 154.19 121.859C154.172 121.861 154.155 121.867 154.14 121.876C154.125 121.884 154.111 121.896 154.101 121.91C154.09 121.924 154.082 121.94 154.077 121.957C154.073 121.974 154.071 121.991 154.074 122.009L154.099 122.207C154.103 122.239 154.118 122.268 154.142 122.289C154.166 122.31 154.197 122.322 154.228 122.323H154.231ZM154.146 121.66H154.164C154.199 121.655 154.23 121.637 154.252 121.609C154.273 121.581 154.283 121.545 154.279 121.51L154.253 121.311C154.248 121.276 154.229 121.244 154.201 121.222C154.187 121.211 154.171 121.204 154.154 121.199C154.137 121.195 154.12 121.193 154.102 121.196C154.085 121.198 154.068 121.204 154.053 121.213C154.038 121.221 154.024 121.233 154.014 121.247C154.003 121.261 153.995 121.277 153.991 121.294C153.986 121.311 153.985 121.329 153.987 121.346L154.014 121.545C154.019 121.576 154.035 121.604 154.059 121.625C154.084 121.645 154.114 121.656 154.146 121.656V121.66ZM154.058 120.997H154.075C154.093 120.995 154.11 120.989 154.125 120.98C154.14 120.972 154.153 120.96 154.164 120.946C154.174 120.932 154.182 120.916 154.187 120.899C154.191 120.882 154.192 120.864 154.19 120.847L154.163 120.648C154.161 120.63 154.156 120.613 154.147 120.597C154.139 120.581 154.127 120.567 154.113 120.555C154.099 120.544 154.082 120.536 154.065 120.531C154.048 120.526 154.029 120.525 154.011 120.527C153.993 120.53 153.976 120.536 153.961 120.545C153.945 120.555 153.932 120.567 153.921 120.582C153.911 120.596 153.903 120.613 153.899 120.631C153.895 120.648 153.895 120.667 153.898 120.684L153.925 120.883C153.93 120.915 153.946 120.944 153.97 120.965C153.994 120.986 154.026 120.997 154.058 120.997ZM153.965 120.334H153.984C154.019 120.329 154.05 120.31 154.072 120.282C154.093 120.253 154.102 120.218 154.098 120.182L154.069 119.983C154.064 119.948 154.045 119.916 154.016 119.895C153.988 119.874 153.953 119.865 153.918 119.87C153.9 119.872 153.883 119.878 153.868 119.887C153.853 119.896 153.84 119.908 153.829 119.922C153.819 119.936 153.811 119.952 153.807 119.969C153.803 119.986 153.802 120.004 153.804 120.021L153.832 120.219C153.837 120.251 153.853 120.28 153.877 120.301C153.902 120.322 153.933 120.334 153.965 120.334ZM153.872 119.67H153.892C153.927 119.665 153.958 119.646 153.98 119.617C154.001 119.589 154.01 119.553 154.005 119.518L153.975 119.319C153.97 119.284 153.951 119.253 153.923 119.232C153.894 119.21 153.858 119.201 153.823 119.207C153.788 119.212 153.757 119.231 153.736 119.259C153.714 119.288 153.706 119.323 153.711 119.358L153.74 119.557C153.745 119.588 153.76 119.616 153.784 119.637C153.807 119.658 153.837 119.669 153.868 119.67H153.872ZM153.773 119.008C153.78 119.009 153.786 119.009 153.793 119.008C153.828 119.003 153.859 118.984 153.88 118.955C153.901 118.927 153.91 118.891 153.905 118.856L153.874 118.658C153.867 118.625 153.847 118.595 153.819 118.576C153.791 118.557 153.757 118.549 153.723 118.555C153.69 118.56 153.659 118.578 153.638 118.604C153.617 118.631 153.607 118.665 153.61 118.698L153.641 118.897C153.646 118.927 153.661 118.954 153.683 118.974C153.706 118.995 153.734 119.007 153.764 119.008H153.773ZM153.67 118.348H153.691C153.726 118.342 153.757 118.322 153.778 118.294C153.799 118.265 153.808 118.23 153.803 118.195L153.771 117.996C153.765 117.961 153.746 117.93 153.717 117.909C153.688 117.888 153.652 117.879 153.617 117.885C153.582 117.891 153.551 117.91 153.53 117.939C153.509 117.968 153.501 118.004 153.507 118.039L153.538 118.236C153.543 118.267 153.559 118.295 153.582 118.315C153.606 118.335 153.635 118.347 153.666 118.348H153.67ZM153.564 117.689H153.585C153.62 117.683 153.652 117.664 153.672 117.635C153.693 117.606 153.701 117.571 153.696 117.536L153.664 117.338C153.659 117.303 153.639 117.272 153.61 117.251C153.582 117.23 153.546 117.221 153.511 117.227C153.476 117.233 153.444 117.252 153.423 117.281C153.403 117.31 153.394 117.346 153.4 117.381L153.432 117.578C153.438 117.609 153.453 117.636 153.477 117.656C153.5 117.676 153.53 117.688 153.56 117.689H153.564ZM153.455 117.031H153.478C153.495 117.028 153.512 117.022 153.527 117.013C153.542 117.003 153.555 116.991 153.565 116.977C153.575 116.962 153.582 116.946 153.586 116.929C153.59 116.912 153.59 116.894 153.587 116.877L153.555 116.68C153.552 116.663 153.546 116.646 153.536 116.631C153.527 116.616 153.515 116.604 153.5 116.593C153.486 116.583 153.47 116.576 153.453 116.572C153.436 116.568 153.418 116.568 153.401 116.571C153.383 116.573 153.367 116.58 153.352 116.589C153.337 116.598 153.324 116.61 153.314 116.625C153.304 116.639 153.296 116.655 153.292 116.672C153.289 116.69 153.288 116.707 153.291 116.725L153.324 116.921C153.329 116.951 153.345 116.979 153.368 116.999C153.392 117.019 153.421 117.03 153.452 117.031H153.455ZM153.344 116.375H153.367C153.385 116.372 153.401 116.365 153.416 116.356C153.431 116.346 153.444 116.334 153.454 116.32C153.464 116.305 153.471 116.289 153.475 116.272C153.479 116.255 153.479 116.237 153.476 116.22L153.442 116.022C153.436 115.987 153.417 115.956 153.388 115.936C153.359 115.915 153.323 115.907 153.288 115.913C153.253 115.919 153.222 115.939 153.201 115.968C153.181 115.997 153.173 116.033 153.179 116.068L153.212 116.265C153.218 116.295 153.234 116.323 153.257 116.343C153.28 116.362 153.31 116.374 153.34 116.375H153.344ZM153.23 115.716H153.253C153.288 115.71 153.319 115.69 153.339 115.661C153.36 115.632 153.368 115.596 153.362 115.561L153.326 115.363C153.324 115.345 153.318 115.328 153.309 115.312C153.3 115.296 153.288 115.283 153.273 115.272C153.258 115.261 153.242 115.254 153.224 115.249C153.206 115.245 153.188 115.245 153.17 115.248C153.152 115.251 153.135 115.258 153.12 115.268C153.105 115.278 153.092 115.291 153.082 115.306C153.072 115.322 153.065 115.339 153.062 115.357C153.059 115.375 153.06 115.393 153.064 115.411L153.098 115.607C153.104 115.638 153.119 115.665 153.143 115.685C153.166 115.705 153.196 115.716 153.226 115.717L153.23 115.716ZM153.112 115.058H153.136C153.171 115.052 153.202 115.032 153.222 115.003C153.242 114.974 153.25 114.938 153.244 114.903L153.209 114.705C153.202 114.671 153.182 114.64 153.153 114.62C153.123 114.6 153.088 114.592 153.053 114.598C153.018 114.604 152.987 114.624 152.967 114.653C152.947 114.682 152.939 114.718 152.945 114.753L152.981 114.95C152.987 114.98 153.003 115.007 153.026 115.027C153.049 115.046 153.078 115.057 153.108 115.058H153.112ZM152.992 114.401C153 114.402 153.009 114.402 153.017 114.401C153.034 114.398 153.05 114.391 153.065 114.382C153.08 114.372 153.093 114.36 153.103 114.345C153.113 114.331 153.12 114.315 153.123 114.297C153.127 114.28 153.127 114.262 153.124 114.245L153.087 114.048C153.079 114.015 153.059 113.985 153.03 113.966C153.001 113.947 152.967 113.94 152.933 113.947C152.899 113.953 152.869 113.972 152.848 114C152.828 114.028 152.82 114.062 152.824 114.097L152.862 114.294C152.867 114.324 152.883 114.35 152.906 114.37C152.929 114.389 152.959 114.4 152.989 114.401H152.992ZM152.87 113.744H152.895C152.93 113.737 152.96 113.717 152.98 113.688C153 113.659 153.008 113.623 153.002 113.588L152.965 113.39C152.958 113.356 152.938 113.325 152.908 113.305C152.879 113.285 152.843 113.277 152.808 113.284C152.773 113.291 152.743 113.311 152.723 113.34C152.703 113.37 152.695 113.406 152.702 113.44L152.739 113.637C152.745 113.667 152.761 113.693 152.784 113.713C152.807 113.732 152.836 113.743 152.866 113.744H152.87ZM152.745 113.087H152.771C152.788 113.084 152.804 113.077 152.819 113.067C152.834 113.058 152.846 113.045 152.856 113.031C152.866 113.016 152.873 113 152.876 112.983C152.88 112.966 152.88 112.948 152.876 112.931L152.838 112.734C152.835 112.717 152.828 112.701 152.819 112.686C152.809 112.671 152.797 112.659 152.782 112.649C152.768 112.639 152.751 112.632 152.734 112.628C152.717 112.625 152.699 112.625 152.682 112.628C152.665 112.631 152.648 112.638 152.634 112.648C152.619 112.657 152.606 112.67 152.596 112.684C152.587 112.699 152.58 112.715 152.576 112.732C152.573 112.749 152.572 112.767 152.576 112.784L152.614 112.981C152.62 113.011 152.636 113.038 152.66 113.057C152.684 113.076 152.713 113.087 152.744 113.087H152.745ZM152.617 112.431C152.626 112.432 152.635 112.432 152.643 112.431C152.661 112.427 152.677 112.421 152.692 112.411C152.706 112.401 152.719 112.389 152.729 112.374C152.739 112.36 152.746 112.343 152.749 112.326C152.753 112.309 152.753 112.291 152.749 112.274L152.71 112.077C152.703 112.042 152.683 112.012 152.653 111.992C152.624 111.972 152.588 111.965 152.553 111.972C152.518 111.979 152.488 111.999 152.468 112.029C152.448 112.058 152.441 112.094 152.448 112.129L152.487 112.326C152.493 112.355 152.509 112.381 152.532 112.4C152.555 112.419 152.584 112.43 152.614 112.431H152.617ZM152.488 111.775H152.514C152.549 111.768 152.58 111.747 152.599 111.717C152.619 111.688 152.626 111.652 152.619 111.617L152.579 111.42C152.577 111.402 152.57 111.385 152.561 111.37C152.551 111.355 152.539 111.341 152.524 111.331C152.509 111.321 152.492 111.314 152.475 111.31C152.457 111.306 152.439 111.306 152.421 111.31C152.403 111.313 152.386 111.32 152.372 111.331C152.357 111.341 152.344 111.354 152.334 111.369C152.325 111.385 152.318 111.402 152.315 111.419C152.313 111.437 152.313 111.456 152.318 111.473L152.357 111.67C152.363 111.699 152.379 111.725 152.402 111.744C152.425 111.763 152.454 111.774 152.484 111.775H152.488ZM152.356 111.12H152.383C152.4 111.116 152.416 111.109 152.431 111.1C152.445 111.09 152.458 111.078 152.468 111.063C152.477 111.048 152.484 111.032 152.487 111.015C152.49 110.997 152.49 110.98 152.487 110.963L152.447 110.766C152.438 110.733 152.418 110.704 152.388 110.685C152.359 110.667 152.324 110.661 152.291 110.667C152.257 110.674 152.227 110.694 152.207 110.722C152.188 110.75 152.18 110.785 152.185 110.819L152.225 111.016C152.232 111.045 152.248 111.071 152.271 111.089C152.294 111.108 152.322 111.119 152.352 111.12H152.356ZM152.221 110.47H152.249C152.284 110.463 152.314 110.442 152.333 110.412C152.352 110.383 152.359 110.347 152.352 110.312L152.311 110.115C152.308 110.098 152.301 110.082 152.291 110.068C152.281 110.053 152.269 110.041 152.254 110.031C152.239 110.021 152.223 110.015 152.206 110.012C152.189 110.008 152.171 110.008 152.154 110.012C152.137 110.015 152.121 110.022 152.106 110.032C152.092 110.042 152.079 110.055 152.07 110.069C152.06 110.084 152.053 110.1 152.05 110.117C152.047 110.134 152.047 110.152 152.05 110.169L152.09 110.366C152.098 110.394 152.114 110.419 152.137 110.437C152.16 110.455 152.188 110.465 152.218 110.465L152.221 110.47ZM152.085 109.816H152.113C152.13 109.812 152.146 109.805 152.161 109.795C152.175 109.785 152.188 109.772 152.197 109.758C152.207 109.743 152.213 109.726 152.216 109.709C152.22 109.692 152.219 109.674 152.216 109.657L152.175 109.46C152.167 109.426 152.146 109.395 152.117 109.376C152.087 109.357 152.051 109.35 152.016 109.357C151.999 109.361 151.983 109.368 151.968 109.378C151.954 109.388 151.941 109.4 151.932 109.415C151.922 109.43 151.916 109.446 151.912 109.464C151.909 109.481 151.909 109.499 151.913 109.516L151.954 109.712C151.962 109.74 151.978 109.765 152.001 109.783C152.024 109.8 152.052 109.81 152.081 109.811L152.085 109.816ZM151.947 109.166H151.974C152.009 109.158 152.039 109.138 152.058 109.108C152.078 109.078 152.085 109.042 152.077 109.007L152.035 108.811C152.026 108.778 152.004 108.75 151.975 108.732C151.946 108.714 151.911 108.708 151.878 108.716C151.844 108.723 151.815 108.743 151.796 108.771C151.776 108.799 151.769 108.834 151.774 108.867L151.816 109.063C151.824 109.09 151.841 109.114 151.864 109.131C151.887 109.148 151.914 109.157 151.943 109.157L151.947 109.166ZM151.805 108.516C151.815 108.517 151.825 108.517 151.834 108.516C151.851 108.513 151.868 108.506 151.882 108.496C151.897 108.486 151.909 108.473 151.918 108.458C151.928 108.443 151.934 108.426 151.937 108.409C151.941 108.392 151.94 108.374 151.936 108.357L151.894 108.161C151.885 108.128 151.863 108.1 151.834 108.082C151.805 108.065 151.77 108.059 151.737 108.066C151.703 108.073 151.674 108.093 151.655 108.121C151.635 108.149 151.628 108.184 151.633 108.218L151.676 108.413C151.685 108.44 151.702 108.463 151.724 108.479C151.747 108.495 151.774 108.504 151.802 108.503L151.805 108.516ZM151.663 107.867C151.672 107.868 151.682 107.868 151.691 107.867C151.709 107.863 151.725 107.856 151.739 107.846C151.754 107.836 151.766 107.823 151.776 107.808C151.785 107.793 151.792 107.777 151.795 107.76C151.798 107.742 151.797 107.724 151.793 107.707L151.75 107.511C151.741 107.478 151.72 107.449 151.69 107.431C151.661 107.414 151.625 107.408 151.592 107.415C151.558 107.422 151.529 107.443 151.509 107.471C151.49 107.5 151.483 107.535 151.489 107.569L151.533 107.765C151.542 107.79 151.56 107.812 151.582 107.827C151.605 107.842 151.632 107.85 151.659 107.85L151.663 107.867ZM151.518 107.217C151.528 107.219 151.538 107.219 151.548 107.217C151.582 107.21 151.612 107.188 151.631 107.159C151.65 107.129 151.656 107.093 151.649 107.059L151.605 106.863C151.601 106.845 151.594 106.829 151.584 106.814C151.574 106.8 151.561 106.787 151.547 106.778C151.532 106.768 151.515 106.762 151.498 106.759C151.48 106.756 151.462 106.756 151.445 106.76C151.428 106.764 151.411 106.771 151.397 106.781C151.383 106.792 151.37 106.805 151.361 106.82C151.352 106.835 151.345 106.851 151.342 106.869C151.34 106.886 151.34 106.904 151.344 106.921L151.388 107.116C151.398 107.141 151.416 107.162 151.438 107.176C151.461 107.191 151.487 107.198 151.514 107.198L151.518 107.217ZM151.371 106.568H151.401C151.418 106.564 151.434 106.556 151.449 106.546C151.463 106.536 151.475 106.523 151.484 106.508C151.494 106.493 151.5 106.477 151.503 106.459C151.506 106.442 151.505 106.424 151.501 106.407L151.457 106.211C151.454 106.194 151.446 106.178 151.436 106.164C151.426 106.149 151.413 106.137 151.398 106.128C151.383 106.118 151.367 106.112 151.35 106.109C151.332 106.106 151.315 106.107 151.297 106.111C151.28 106.115 151.264 106.122 151.25 106.132C151.235 106.142 151.223 106.155 151.214 106.17C151.205 106.185 151.198 106.201 151.195 106.219C151.192 106.236 151.193 106.254 151.197 106.271L151.241 106.467C151.252 106.491 151.27 106.511 151.292 106.525C151.315 106.539 151.341 106.546 151.367 106.545L151.371 106.568ZM151.223 105.918C151.233 105.919 151.243 105.919 151.252 105.918C151.287 105.91 151.317 105.889 151.335 105.859C151.354 105.829 151.36 105.793 151.353 105.758L151.307 105.563C151.304 105.545 151.297 105.527 151.288 105.512C151.278 105.497 151.265 105.484 151.25 105.474C151.234 105.463 151.217 105.457 151.199 105.453C151.181 105.45 151.163 105.45 151.145 105.455C151.127 105.459 151.111 105.466 151.096 105.477C151.081 105.488 151.069 105.502 151.06 105.518C151.051 105.533 151.045 105.551 151.043 105.569C151.041 105.587 151.042 105.605 151.047 105.623L151.092 105.818C151.103 105.842 151.121 105.861 151.144 105.875C151.167 105.888 151.193 105.895 151.219 105.894L151.223 105.918ZM151.071 105.268C151.082 105.27 151.092 105.27 151.102 105.268C151.136 105.26 151.166 105.239 151.185 105.209C151.204 105.179 151.209 105.142 151.201 105.108L151.156 104.913C151.153 104.895 151.146 104.878 151.136 104.863C151.126 104.847 151.113 104.834 151.098 104.824C151.083 104.814 151.066 104.807 151.048 104.804C151.03 104.8 151.012 104.801 150.994 104.805C150.976 104.809 150.959 104.817 150.945 104.828C150.93 104.838 150.918 104.852 150.909 104.868C150.899 104.884 150.894 104.901 150.891 104.919C150.889 104.938 150.891 104.956 150.896 104.973L150.942 105.169C150.953 105.192 150.971 105.212 150.994 105.225C151.016 105.238 151.042 105.244 151.068 105.242L151.071 105.268ZM150.918 104.619C150.929 104.62 150.939 104.62 150.95 104.619C150.984 104.61 151.014 104.589 151.033 104.559C151.051 104.528 151.057 104.492 151.049 104.457L151.003 104.263C150.999 104.245 150.992 104.229 150.982 104.214C150.972 104.199 150.958 104.187 150.943 104.177C150.928 104.168 150.911 104.161 150.894 104.158C150.876 104.156 150.858 104.156 150.841 104.16C150.824 104.164 150.807 104.172 150.793 104.183C150.779 104.193 150.766 104.206 150.757 104.222C150.748 104.237 150.742 104.254 150.74 104.272C150.737 104.289 150.738 104.307 150.743 104.325L150.788 104.52C150.8 104.542 150.819 104.561 150.841 104.574C150.863 104.587 150.889 104.593 150.915 104.592L150.918 104.619ZM150.764 103.969C150.774 103.97 150.785 103.97 150.795 103.969C150.829 103.961 150.859 103.939 150.877 103.909C150.896 103.879 150.902 103.842 150.894 103.808L150.847 103.613C150.838 103.579 150.816 103.55 150.786 103.533C150.756 103.515 150.721 103.509 150.687 103.517C150.653 103.525 150.623 103.547 150.605 103.576C150.586 103.605 150.58 103.641 150.587 103.675L150.634 103.87C150.646 103.893 150.664 103.912 150.687 103.924C150.709 103.937 150.735 103.943 150.761 103.941L150.764 103.969ZM150.607 103.32C150.618 103.321 150.629 103.321 150.639 103.32C150.673 103.311 150.703 103.289 150.721 103.259C150.74 103.229 150.745 103.193 150.737 103.158L150.689 102.963C150.686 102.945 150.679 102.928 150.669 102.912C150.659 102.897 150.646 102.884 150.631 102.874C150.616 102.863 150.598 102.857 150.58 102.853C150.562 102.85 150.543 102.851 150.526 102.855C150.508 102.86 150.491 102.868 150.476 102.879C150.462 102.89 150.449 102.904 150.441 102.92C150.432 102.936 150.426 102.954 150.424 102.972C150.422 102.99 150.424 103.009 150.43 103.026L150.478 103.221C150.49 103.244 150.508 103.262 150.53 103.275C150.553 103.287 150.578 103.293 150.604 103.291L150.607 103.32ZM150.448 102.67C150.459 102.671 150.47 102.671 150.48 102.67C150.514 102.661 150.542 102.638 150.559 102.608C150.577 102.578 150.582 102.542 150.573 102.509L150.526 102.314C150.517 102.279 150.495 102.25 150.465 102.231C150.45 102.222 150.433 102.216 150.416 102.213C150.399 102.211 150.381 102.212 150.364 102.216C150.347 102.22 150.331 102.228 150.317 102.238C150.302 102.248 150.29 102.261 150.281 102.276C150.272 102.292 150.266 102.308 150.264 102.326C150.261 102.343 150.262 102.361 150.266 102.378L150.314 102.573C150.327 102.596 150.346 102.614 150.369 102.626C150.392 102.639 150.418 102.644 150.444 102.641L150.448 102.67ZM150.287 102.02C150.298 102.022 150.309 102.022 150.32 102.02C150.353 102.011 150.382 101.989 150.399 101.959C150.416 101.928 150.421 101.893 150.413 101.859L150.363 101.664C150.354 101.631 150.332 101.602 150.301 101.585C150.271 101.568 150.236 101.563 150.202 101.571C150.168 101.581 150.14 101.603 150.123 101.634C150.105 101.664 150.1 101.7 150.109 101.734L150.158 101.929C150.171 101.95 150.19 101.967 150.212 101.978C150.234 101.99 150.259 101.995 150.284 101.993L150.287 102.02ZM150.124 101.371C150.135 101.372 150.146 101.372 150.157 101.371C150.191 101.362 150.22 101.339 150.237 101.309C150.255 101.278 150.259 101.242 150.25 101.208L150.201 101.014C150.197 100.997 150.19 100.981 150.179 100.966C150.169 100.952 150.156 100.939 150.14 100.93C150.125 100.921 150.108 100.914 150.091 100.912C150.073 100.909 150.055 100.91 150.038 100.914C150.02 100.919 150.004 100.927 149.99 100.937C149.976 100.948 149.964 100.962 149.955 100.977C149.946 100.993 149.94 101.01 149.938 101.028C149.936 101.045 149.937 101.063 149.942 101.08L149.991 101.274C150.004 101.297 150.022 101.316 150.045 101.328C150.068 101.341 150.094 101.346 150.12 101.344L150.124 101.371ZM149.96 100.721C149.971 100.721 149.982 100.719 149.992 100.717C150.026 100.707 150.055 100.685 150.072 100.655C150.089 100.624 150.094 100.588 150.085 100.554L150.035 100.36C150.025 100.327 150.003 100.298 149.973 100.281C149.943 100.264 149.907 100.259 149.873 100.267C149.84 100.276 149.811 100.297 149.792 100.327C149.774 100.357 149.768 100.392 149.776 100.426L149.826 100.621C149.838 100.646 149.857 100.666 149.881 100.679C149.905 100.692 149.933 100.698 149.96 100.695V100.721ZM149.792 100.072C149.803 100.071 149.814 100.07 149.825 100.067C149.859 100.057 149.888 100.035 149.905 100.004C149.922 99.9738 149.927 99.9376 149.918 99.9037L149.868 99.7097C149.859 99.6754 149.837 99.646 149.806 99.6281C149.775 99.6102 149.739 99.6052 149.704 99.6141C149.67 99.6231 149.641 99.6454 149.623 99.676C149.605 99.7067 149.6 99.7431 149.609 99.7775L149.66 99.9714C149.671 99.9955 149.689 100.016 149.712 100.029C149.735 100.043 149.762 100.049 149.788 100.048L149.792 100.072ZM149.621 99.4221C149.633 99.4219 149.644 99.4203 149.655 99.4174C149.689 99.4077 149.718 99.3851 149.735 99.3546C149.752 99.3241 149.757 99.288 149.748 99.2541L149.696 99.0592C149.692 99.0419 149.684 99.0257 149.674 99.0115C149.663 98.9972 149.65 98.9852 149.634 98.9762C149.619 98.9672 149.602 98.9613 149.584 98.9589C149.567 98.9565 149.549 98.9577 149.532 98.9623C149.514 98.967 149.498 98.975 149.484 98.9859C149.47 98.9968 149.459 99.0104 149.45 99.0259C149.441 99.0414 149.436 99.0585 149.434 99.0762C149.432 99.0938 149.433 99.1117 149.438 99.1288L149.489 99.3218C149.5 99.3461 149.519 99.3664 149.541 99.3803C149.564 99.3942 149.591 99.401 149.617 99.3998L149.621 99.4221ZM149.447 98.7725C149.459 98.7742 149.471 98.7742 149.483 98.7725C149.517 98.7627 149.545 98.74 149.563 98.7093C149.58 98.6786 149.585 98.6423 149.576 98.6082L149.522 98.4124C149.517 98.3955 149.509 98.3796 149.498 98.3657C149.487 98.3519 149.474 98.3403 149.459 98.3316C149.443 98.323 149.426 98.3174 149.409 98.3153C149.392 98.3131 149.374 98.3144 149.357 98.3191C149.34 98.3238 149.324 98.3318 149.31 98.3426C149.296 98.3534 149.285 98.3669 149.276 98.3822C149.268 98.3975 149.262 98.4143 149.26 98.4318C149.258 98.4492 149.259 98.4669 149.264 98.4838L149.318 98.6787C149.329 98.7018 149.347 98.7209 149.37 98.7338C149.392 98.7466 149.418 98.7526 149.444 98.7511L149.447 98.7725Z" fill="white"/>
<path d="M90.1458 100.062C92.4583 101.855 95.2841 102.861 98.2093 102.932C101.135 103.003 104.006 102.136 106.403 100.457L106.966 100.062C107.244 100.398 112.637 106.008 115.683 112.927C115.766 113.116 115.801 113.322 115.786 113.527C115.77 113.733 115.705 113.931 115.596 114.106C115.065 114.964 113.953 116.527 112.577 117.161C112.331 117.273 112.054 117.304 111.789 117.247C111.523 117.191 111.283 117.051 111.103 116.848C110.082 115.705 107.842 113.136 106.793 111.558C106.793 111.558 108.623 121.658 109.113 125.791C109.184 126.388 109.02 126.989 108.657 127.468C108.293 127.946 107.758 128.265 107.164 128.357C101.154 129.31 95.3566 129.448 89.8609 128.424C89.2814 128.317 88.7644 127.993 88.4149 127.519C88.0653 127.044 87.9095 126.454 87.9789 125.869C88.4578 121.751 90.311 111.558 90.311 111.558C89.2624 113.136 87.0194 115.7 86.0023 116.848C85.8224 117.051 85.582 117.191 85.3165 117.247C85.0511 117.304 84.7746 117.273 84.5277 117.161C83.1515 116.527 82.0397 114.964 81.508 114.106C81.399 113.931 81.3342 113.733 81.3191 113.527C81.3041 113.322 81.3393 113.116 81.4217 112.927C84.4757 106.008 89.8665 100.398 90.1458 100.062Z" fill="white"/>
<path d="M87.4718 103.195C88.9251 101.364 90.0247 100.209 90.1463 100.062C92.4588 101.855 95.2845 102.861 98.2098 102.932C101.135 103.003 104.006 102.136 106.403 100.457L106.966 100.062C107.078 100.196 107.995 101.162 109.253 102.712C106.672 104.606 99.2426 108.6 87.4718 103.195Z" fill="#19D791"/>
<path d="M88.1933 124.291C88.4281 122.629 88.764 120.544 89.0999 118.545C96.9053 119.781 103.219 119.551 108.051 118.79C108.386 120.791 108.716 122.856 108.943 124.475C103.838 125.401 96.9323 125.759 88.1933 124.291Z" fill="#19D791"/>
<path d="M89.9188 113.777C90.1554 112.437 90.3141 111.563 90.3141 111.563C89.9374 112.128 89.4065 112.821 88.8293 113.531C86.5412 112.988 84.2818 112.33 82.0596 111.559C82.8568 109.963 83.7528 108.419 84.7424 106.934C99.5125 112.757 108.963 109.374 112.659 107.406C113.689 108.985 114.607 110.634 115.408 112.34C114.001 112.976 111.836 113.775 108.929 114.341C108.117 113.366 107.304 112.343 106.784 111.563C106.784 111.563 107.011 112.814 107.326 114.615C102.941 115.27 97.1238 115.346 89.9188 113.777Z" fill="#19D791"/>
<path d="M64.9831 109.304L73.2767 123.375C73.5967 123.915 73.7386 124.542 73.6823 125.167C73.626 125.792 73.3743 126.383 72.963 126.857C71.5079 128.528 68.8919 130.743 65.3534 130.612C59.7139 130.403 58.2514 127.321 51.9317 129.724C45.612 132.127 42.4661 126.398 40.2389 126.329C39.9911 126.322 39.7749 126.316 39.5791 126.314C39.4523 126.311 39.3286 126.274 39.2209 126.207C39.1133 126.14 39.0257 126.046 38.9675 125.933C38.9092 125.82 38.8825 125.694 38.89 125.568C38.8975 125.441 38.939 125.319 39.0102 125.214L49.4725 109.778L64.9831 109.304Z" fill="#19D791"/>
<path d="M64.9829 108.942L65.2279 108.341L68.7432 99.6986C68.7432 99.6986 65.2446 98.4978 63.6253 98.4978C63.6253 98.4978 56.9928 100.691 51.3525 98.4978C51.3525 98.4978 47.6404 98.9674 46.2345 99.9074L49.6291 109.151L64.9829 108.942Z" fill="#19D791"/>
<path d="M65.5176 110.211L65.3487 108.207C65.3487 108.207 56.3796 109.565 49.3231 108.312L49.1597 110.354C49.1597 110.354 55.5555 113.103 65.5176 110.211Z" fill="#00C079"/>
<path d="M1.50062 69.4923C1.42626 69.3054 1.3904 69.1054 1.39518 68.9043C1.39997 68.7033 1.4453 68.5052 1.52847 68.3221C4.03406 62.8079 13.0087 43.0665 13.3382 42.8318C13.7224 42.5534 25.7826 32.079 25.7826 32.079C28.0043 30.1497 28.7095 32.0178 28.7095 32.0178L33.3105 51.1615L21.4201 76.5302C21.2584 76.8758 20.9702 77.1461 20.6151 77.2855C20.2599 77.4248 19.8648 77.4225 19.5112 77.2791L2.32563 70.3191C2.13961 70.2438 1.97066 70.1318 1.82891 69.9897C1.68717 69.8477 1.57551 69.6785 1.50062 69.4923ZM27.2414 38.9954C27.5829 38.7519 27.8446 38.4127 27.9932 38.0205C28.1419 37.6284 28.1709 37.2009 28.0767 36.7923C27.9824 36.3836 27.7691 36.0121 27.4637 35.7246C27.1583 35.4372 26.7745 35.2468 26.3609 35.1775C25.9472 35.1082 25.5223 35.1631 25.1399 35.3353C24.7575 35.5074 24.4347 35.7892 24.2124 36.1448C23.9901 36.5004 23.8782 36.914 23.891 37.3332C23.9037 37.7524 24.0404 38.1584 24.2839 38.4999C24.4455 38.7267 24.6502 38.9195 24.8863 39.0671C25.1224 39.2148 25.3853 39.3145 25.66 39.3605C25.9346 39.4066 26.2157 39.398 26.487 39.3353C26.7584 39.2727 27.0147 39.1572 27.2414 38.9954Z" fill="#5FE0BB"/>
<path d="M20.9112 56.0177C19.2825 58.8444 19.6788 60.9686 21.0309 61.7481C22.4146 62.5443 24.3717 61.7481 25.8714 59.1766C27.3339 56.6385 27.217 54.3454 25.6969 53.4703C24.1314 52.5683 22.3013 53.603 20.9112 56.0177ZM17.756 67.3643L20.011 50.1963L18.9475 49.5839L16.6915 66.7518L17.756 67.3643ZM24.4942 58.2736C23.6182 59.8308 22.5537 60.7291 21.8095 60.3004C21.0652 59.8717 21.3176 58.5882 22.2568 56.9596C23.1124 55.4748 24.1054 54.454 24.9109 54.918C25.6672 55.3495 25.3582 56.7647 24.4942 58.2736ZM10.8962 57.6714C9.2805 60.4776 9.64892 62.6139 11.0177 63.4018C12.3865 64.1896 14.3585 63.4018 15.8545 60.8034C17.304 58.2857 17.1992 55.9722 15.6949 55.1055C14.1256 54.1988 12.2835 55.2539 10.8924 57.6686L10.8962 57.6714ZM14.4718 59.9218C13.6078 61.4576 12.5313 62.3773 11.787 61.9485C11.027 61.5105 11.2952 60.2364 12.2343 58.6077C13.102 57.1016 14.0829 56.1021 14.8884 56.5661C15.6494 56.9995 15.3404 58.4156 14.4718 59.9218Z" fill="white"/>
<path d="M26.8008 37.6618C26.974 37.6422 27.1375 37.5718 27.2707 37.4595C27.404 37.3473 27.5011 37.1981 27.5497 37.0308C27.6119 36.8182 29.1598 31.7922 35.2122 30.08C35.4348 30.0138 35.6223 29.8626 35.7343 29.6592C35.8463 29.4557 35.8736 29.2163 35.8104 28.9929C35.7472 28.7694 35.5986 28.5798 35.3967 28.4651C35.1948 28.3504 34.9558 28.3198 34.7315 28.3799C27.7066 30.3668 25.9248 36.2874 25.8524 36.5389C25.8126 36.6786 25.8077 36.8259 25.8382 36.9679C25.8687 37.1098 25.9337 37.2421 26.0274 37.3531C26.1211 37.464 26.2407 37.5502 26.3756 37.6041C26.5104 37.6579 26.6565 37.6777 26.8008 37.6618Z" fill="#F1F1F1"/>
<path d="M52.8834 73.2766L62.6126 75.8528L64.09 76.2425C64.09 76.2425 64.2756 75.9845 64.6319 75.5001C64.8017 75.2551 65.0356 74.9656 65.3056 74.6232C65.5757 74.2807 65.9014 73.8928 66.2698 73.4594C67.1781 72.4119 68.1435 71.4153 69.1615 70.4741C70.5235 69.2169 71.9706 68.055 73.4925 66.9968C75.362 65.7032 77.3251 64.5506 79.3658 63.5484C80.4794 63.0204 81.6366 62.484 82.8671 62.0153L83.3311 61.8297C83.487 61.7722 83.6457 61.7165 83.8016 61.659L84.7482 61.3147C85.3978 61.1087 86.039 60.8767 86.7081 60.6883C89.4829 59.8597 92.3223 59.2655 95.1965 58.9121C96.6813 58.7265 98.1958 58.6179 99.7215 58.5502L100.869 58.526C101.055 58.526 101.257 58.514 101.441 58.514L101.998 58.5186H102.555C102.74 58.5186 102.918 58.5186 103.133 58.5298L104.369 58.5789L104.525 58.5845L104.607 58.5474L104.633 58.5084H104.652L104.915 58.5641L105.492 58.6235C105.876 58.6495 106.262 58.6801 106.643 58.7228L107.794 58.8379C108.177 58.887 108.558 58.9381 108.939 58.9854C110.463 59.1914 111.975 59.4494 113.454 59.7816L114.011 59.9032L114.56 60.0396C114.925 60.1324 115.292 60.2187 115.654 60.318C116.375 60.5222 117.097 60.7143 117.8 60.9453C118.509 61.156 119.192 61.4094 119.887 61.6441C120.228 61.7694 120.564 61.9003 120.901 62.0283L121.407 62.2204L121.9 62.4264C123.228 62.9591 124.483 63.5623 125.7 64.1776C126.3 64.4959 126.898 64.8049 127.463 65.139C128.028 65.4731 128.593 65.8062 129.144 66.1394C131.164 67.405 133.081 68.8277 134.878 70.3943C136.364 71.6904 137.755 73.0929 139.038 74.5907C140.006 75.7268 140.91 76.9162 141.745 78.1533C142.083 78.6664 142.395 79.1258 142.627 79.5295C142.859 79.9332 143.082 80.2719 143.237 80.5698C143.321 80.722 143.394 80.855 143.458 80.9688C143.591 81.2101 143.907 81.34 144.214 81.289C144.257 81.283 144.299 81.2734 144.34 81.2602L144.392 81.2426C144.733 81.1303 144.908 80.8166 144.787 80.5299C144.739 80.4111 144.68 80.2737 144.614 80.116C144.496 79.8162 144.314 79.4395 144.106 79.0024C143.898 78.5653 143.642 78.0586 143.356 77.5C142.637 76.1505 141.841 74.8435 140.972 73.5856C139.803 71.9087 138.511 70.3214 137.105 68.8371C135.38 67.0168 133.509 65.3408 131.511 63.8259C130.963 63.4194 130.413 63.0018 129.826 62.6074C129.252 62.1991 128.644 61.8121 128.031 61.4186C126.792 60.6484 125.497 59.8846 124.112 59.1868C123.94 59.0986 123.77 59.0086 123.596 58.9204L123.068 58.6652C122.715 58.4964 122.361 58.3219 122.002 58.1558C121.274 57.8365 120.547 57.5015 119.789 57.2064C119.046 56.8918 118.268 56.6144 117.494 56.3267C117.104 56.1884 116.709 56.0594 116.312 55.9249L115.717 55.7272L115.115 55.5416C113.508 55.0377 111.847 54.6201 110.16 54.2545L108.888 53.9928L107.606 53.7654C107.177 53.6856 106.745 53.6253 106.313 53.5631L105.663 53.4703L105.341 53.422L104.975 53.3812L103.749 53.2364C103.555 53.2095 103.322 53.191 103.099 53.1715L102.421 53.113L101.743 53.0564C101.515 53.0369 101.302 53.0304 101.08 53.0165L99.7623 52.9423C97.9991 52.881 96.2442 52.8755 94.4959 52.9525C91.0732 53.1021 87.669 53.5367 84.3185 54.2517C83.5009 54.4141 82.7066 54.6229 81.9057 54.8085L80.7337 55.1268L80.1527 55.2873L79.5792 55.4618C78.0471 55.9072 76.5911 56.4362 75.1786 56.967C72.5648 57.9892 70.0282 59.1987 67.5885 60.5862C65.5667 61.7402 63.6236 63.0267 61.7718 64.4374C60.3713 65.5073 59.0287 66.651 57.7499 67.8636C57.2255 68.3666 56.7569 68.8157 56.3746 69.224C55.9922 69.6324 55.6498 69.9664 55.3974 70.2606C54.8842 70.8304 52.8834 73.2766 52.8834 73.2766Z" fill="#19D791"/>
<path d="M48.7403 72.8748L53.7886 91.251L72.4219 73.5383L48.7403 72.8748Z" fill="#19D791"/>
<path d="M131.899 148.863L123.776 146.248L122.541 145.853L122.033 146.458C121.872 146.66 121.655 146.896 121.403 147.176C121.15 147.456 120.846 147.773 120.507 148.125C119.666 148.979 118.78 149.787 117.851 150.545C116.61 151.556 115.302 152.483 113.936 153.319C112.263 154.34 110.518 155.237 108.714 156.003C107.73 156.405 106.712 156.811 105.633 157.158L105.231 157.291C105.094 157.333 104.952 157.374 104.819 157.416C104.545 157.499 104.269 157.583 103.991 157.669C103.427 157.816 102.863 157.985 102.281 158.117C99.8695 158.703 97.4129 159.086 94.9372 159.263C93.6602 159.356 92.3638 159.384 91.06 159.376L90.08 159.348C89.9176 159.341 89.7487 159.34 89.5928 159.333L89.1186 159.305L88.6453 159.279C88.4876 159.269 88.3363 159.263 88.1535 159.244L87.103 159.151L86.9712 159.139L86.897 159.172L86.871 159.208H86.8561L86.6362 159.144L86.1499 159.067C85.8242 159.028 85.5003 158.985 85.1746 158.931L84.2021 158.783C83.8791 158.724 83.558 158.665 83.236 158.607C81.9507 158.367 80.6794 158.084 79.4405 157.734L78.9765 157.606L78.5171 157.467C78.2127 157.374 77.9047 157.281 77.6031 157.188C77.0017 156.984 76.3967 156.789 75.8148 156.562C75.2246 156.351 74.6548 156.108 74.0813 155.876C73.8029 155.754 73.5245 155.628 73.2461 155.505L72.8276 155.319L72.4211 155.122C71.3233 154.611 70.2923 154.043 69.2947 153.467C68.8038 153.17 68.3138 152.88 67.8507 152.571C67.3876 152.262 66.9301 151.954 66.4828 151.643C64.8431 150.479 63.3 149.184 61.8688 147.771C59.7811 145.72 57.9788 143.397 56.5105 140.866C56.2553 140.414 56.0224 140.009 55.847 139.659C55.6716 139.309 55.5064 139.01 55.3923 138.747C55.331 138.614 55.2772 138.498 55.2299 138.398C55.1315 138.186 54.8708 138.062 54.6063 138.092C54.5696 138.095 54.5334 138.102 54.4977 138.111L54.4522 138.124C54.1543 138.205 53.9882 138.465 54.0699 138.714C54.1042 138.817 54.1451 138.937 54.1905 139.074C54.2731 139.335 54.404 139.664 54.5534 140.048C54.7028 140.432 54.8865 140.871 55.0963 141.36C55.623 142.541 56.2186 143.691 56.8799 144.802C57.7685 146.281 58.7691 147.689 59.8727 149.014C61.2261 150.64 62.7133 152.149 64.3187 153.525C64.7605 153.897 65.2022 154.275 65.6773 154.639C66.1525 155.003 66.6332 155.368 67.1306 155.729C68.1365 156.439 69.1926 157.145 70.3275 157.8C70.4677 157.882 70.6059 157.967 70.7498 158.049C70.8936 158.132 71.0384 158.21 71.1831 158.289C71.4745 158.448 71.7641 158.613 72.0592 158.769C72.6587 159.073 73.2572 159.39 73.8846 159.674C74.5007 159.974 75.142 160.244 75.7842 160.522C76.1071 160.657 76.4338 160.784 76.7651 160.916L77.2588 161.11L77.7599 161.296C79.0971 161.794 80.4854 162.224 81.8997 162.606L82.966 162.884L84.0443 163.133C84.4053 163.22 84.7691 163.29 85.1329 163.361L85.6804 163.471L85.9523 163.525L86.2613 163.577L87.296 163.753C87.4593 163.784 87.657 163.809 87.8473 163.836L88.4217 163.915L88.9952 163.993C89.1873 164.019 89.3664 164.034 89.552 164.055L90.6712 164.176C92.1652 164.303 93.6639 164.384 95.1571 164.395C98.0882 164.414 101.016 164.191 103.91 163.727C104.617 163.624 105.308 163.478 105.997 163.356L107.018 163.135L107.524 163.023L108.022 162.899C109.356 162.585 110.63 162.198 111.867 161.807C114.161 161.049 116.398 160.13 118.562 159.055C120.358 158.159 122.094 157.147 123.759 156.026C125.023 155.17 126.241 154.249 127.41 153.266C127.889 152.86 128.317 152.498 128.668 152.167C129.019 151.835 129.333 151.562 129.566 151.326C130.04 150.861 131.899 148.863 131.899 148.863Z" fill="#19D791"/>
<path d="M135.404 149.385L132.271 133.512L115.271 147.795L135.404 149.385Z" fill="url(#paint0_linear_130_5750)"/>
<path d="M135.404 149.385L132.271 133.512L115.271 147.795L135.404 149.385Z" fill="#19D791"/>
<path d="M6.5171 116.07C5.68189 116.966 4.44394 117.741 3.5744 118.221C4.87361 119.825 6.62753 121.431 8.95218 123.003L9.61755 124.496L11.752 121.942C11.752 121.942 7.92395 120.038 6.5171 116.07Z" fill="#FFD89D"/>
<path d="M20.1882 121.409C20.1882 121.409 24.4227 137.5 24.3456 157.748C24.3451 157.927 24.283 158.101 24.1699 158.24C24.0568 158.379 23.8993 158.475 23.7239 158.512C23.1912 158.624 22.4089 158.757 21.7612 158.739C21.5933 158.733 21.4326 158.67 21.3062 158.559C21.1799 158.448 21.0957 158.297 21.0679 158.132C20.474 154.65 17.0674 135.038 15.1288 131.854C15.1288 131.854 13.8518 149.321 14.2602 158.384C14.2654 158.493 14.2292 158.599 14.1589 158.682C14.0886 158.765 13.9895 158.818 13.8815 158.831C13.3573 158.888 12.8282 158.888 12.3039 158.831C12.1765 158.818 12.0568 158.763 11.964 158.675C11.8712 158.587 11.8105 158.47 11.7917 158.343C11.3685 155.397 8.93531 137.858 9.03832 125.224C9.04389 124.511 10.9222 121.414 10.9222 121.414L20.1882 121.409Z" fill="#A8B2BC"/>
<path d="M26.0723 101.936C25.3913 101.081 24.7914 100.166 24.2803 99.2C23.5769 97.8711 24.2237 100.06 24.0316 98.5597C18.7643 94.7549 10.8345 96.6823 7.76656 97.0693C6.76132 97.1971 5.83918 97.6931 5.17838 98.4613C2.54936 101.503 -3.21909 109.832 3.57015 118.228C4.43968 117.745 5.67392 116.972 6.51283 116.077C5.76115 113.96 5.6999 111.251 7.27378 107.935C7.32746 108.199 7.39469 108.459 7.47518 108.716C9.64484 115.588 9.76082 121.309 9.75525 122.627C9.75516 122.715 9.78173 122.801 9.83142 122.874C9.88112 122.946 9.95161 123.002 10.0337 123.034C12.8891 124.178 18.3857 123.498 20.2305 123.219C20.3925 123.194 20.5381 123.106 20.6353 122.974C20.7325 122.842 20.7735 122.677 20.7493 122.515C19.8445 115.954 24.4919 105.161 25.7196 102.458C25.8055 102.265 25.9248 102.088 26.0723 101.936Z" fill="#2187FF"/>
<path d="M12.7083 91.545L12.1579 97.1668C12.1579 97.1668 15.3215 98.1198 17.6221 96.4968L16.0046 91.3863L12.7083 91.545Z" fill="#FFD89D"/>
<path d="M16.3761 85.1362C16.4522 85.2076 19.5889 91.3677 19.5889 91.3677L16.0337 93.0835L12.1936 87.6872C12.1936 87.6872 15.102 83.9363 16.3761 85.1362Z" fill="#FFD89D"/>
<path d="M13.7667 87.8367C13.7355 87.9176 13.7232 88.0044 13.7306 88.0908C13.738 88.1771 13.7649 88.2606 13.8093 88.335L15.5855 91.2907C15.6105 91.3352 15.6417 91.3758 15.6783 91.4113C15.889 91.6081 16.6063 92.1797 17.1696 91.4011C17.6457 90.7386 18.092 90.1353 18.57 89.8866C18.6368 89.8527 18.7096 89.8322 18.7843 89.8265C18.859 89.8208 18.9341 89.83 19.0053 89.8535C19.0765 89.8769 19.1423 89.9142 19.199 89.9633C19.2557 90.0123 19.3021 90.072 19.3356 90.1391C19.6279 90.7181 20.193 91.9023 20.5484 93.0159C20.5909 93.1514 20.5806 93.298 20.5197 93.4263C20.4588 93.5547 20.3518 93.6553 20.2199 93.7081C19.5007 93.9995 18.0781 94.5266 16.8151 94.7011C16.7134 94.7153 16.6098 94.7015 16.5153 94.6613C16.4208 94.6211 16.339 94.5559 16.2787 94.4728C15.7359 93.7304 14.2047 91.6498 13.6803 91.132C13.195 90.6485 12.2986 90.8304 11.8949 90.9464C11.8194 90.9683 11.7402 90.9743 11.6622 90.9641C11.5843 90.9539 11.5093 90.9276 11.442 90.887C11.0328 90.6402 10.3182 90.0258 10.9715 88.9856C11.0483 88.8594 11.0729 88.7084 11.0401 88.5644C11.0074 88.4205 10.9199 88.2949 10.7961 88.2144C10.3386 87.9137 9.84308 87.3495 10.3154 86.4345C10.7878 85.5195 11.649 85.4257 12.2308 85.4972C12.3571 85.5145 12.4856 85.4904 12.5971 85.4285C12.7085 85.3666 12.7968 85.2702 12.8489 85.1538C12.8733 85.0932 12.9131 85.04 12.9644 84.9995C13.0156 84.959 13.0766 84.9325 13.1412 84.9228C13.2136 84.9103 13.2827 84.8835 13.3445 84.8439C13.4063 84.8042 13.4596 84.7526 13.5011 84.692C13.5426 84.6315 13.5716 84.5632 13.5863 84.4913C13.601 84.4193 13.6011 84.3452 13.5866 84.2732C13.4845 83.7488 13.5616 83.0668 14.3977 82.6093C15.9317 81.7657 17.2745 83.1401 17.6169 84.3001C17.9593 85.4601 16.2435 86.2795 15.1651 86.4168C14.3791 86.5199 13.942 87.3848 13.7667 87.8367Z" fill="#5B6475"/>
<path d="M14.3506 92.2159C14.3506 92.2159 13.6685 90.2207 12.7953 90.294C11.922 90.3673 11.2344 91.2369 12.3164 92.215C13.6629 93.4306 14.3506 92.2159 14.3506 92.2159Z" fill="#FFD89D"/>
<path d="M6.99026 107.415C5.83948 104.265 6.25711 100.462 6.26082 100.424L6.57821 100.46C6.57357 100.497 6.16524 104.228 7.29004 107.305L6.99026 107.415Z" fill="#015FCD"/>
<path d="M14.9705 131.443C14.935 131.443 14.9006 131.432 14.8726 131.41C14.8446 131.388 14.8245 131.358 14.8155 131.324C14.4647 129.97 11.8357 128.481 11.8088 128.466C11.7718 128.446 11.7447 128.411 11.7333 128.37C11.7219 128.329 11.7272 128.286 11.748 128.249C11.7688 128.212 11.8034 128.185 11.8442 128.173C11.885 128.162 11.9287 128.167 11.9656 128.188C12.0788 128.251 14.7394 129.758 15.1208 131.244C15.1261 131.264 15.1273 131.285 15.1245 131.306C15.1216 131.327 15.1147 131.347 15.104 131.365C15.0934 131.383 15.0794 131.398 15.0627 131.411C15.0459 131.424 15.0269 131.433 15.0066 131.438C14.9949 131.441 14.9827 131.443 14.9705 131.443Z" fill="#7B818D"/>
<path d="M36.7664 103.704C30.8096 104.597 26.9296 100.839 24.0352 98.5598C20.2155 95.5494 17.2431 97.0137 17.2431 97.0137L21.3161 104.788C27.3992 110.523 33.6362 109.249 37.5682 107.386C37.6148 106.111 37.339 104.844 36.7664 103.704Z" fill="#2187FF"/>
<path d="M45.1392 100.15L43.1635 101.213C40.7943 102.656 38.6748 103.418 36.7668 103.704C37.3402 104.845 37.616 106.114 37.5686 107.391C40.0742 106.207 41.6407 104.792 41.6407 104.792C46.1164 102.12 45.1392 100.15 45.1392 100.15Z" fill="url(#paint1_linear_130_5750)"/>
<path d="M50.9579 102.934C50.8945 102.726 50.7851 102.534 50.6378 102.374C50.4906 102.213 50.3091 102.087 50.1069 102.006L46.098 100.394C46.098 100.394 46.0367 99.8803 46.9443 99.5304C47.8519 99.1806 47.6403 98.1653 47.6403 98.1653C47.6403 98.1653 46.4005 98.7305 44.5853 99.6279C43.5469 100.141 42.9641 101.047 42.656 101.728L43.6879 103.086C46.1583 103.828 48.6583 103.97 51.1797 103.675L50.9579 102.934Z" fill="url(#paint2_linear_130_5750)"/>
<path d="M49.1453 123.154C49.1453 123.154 45.9521 131.757 41.0959 130.702C41.0959 130.702 40.5957 133.629 41.4132 133.974C41.4132 133.974 48.6971 134.185 49.4209 124.182L49.1453 123.154Z" fill="#FFD89D"/>
<path d="M49.008 125.171C49.0219 125.32 48.467 125.423 48.2906 124.788C48.3389 124.509 48.4252 123.303 48.6368 123.117C49.7643 122.117 51.7734 120.992 51.7734 120.992C51.8383 121.077 51.8674 121.184 51.8544 121.291C51.8414 121.397 51.7873 121.494 51.7038 121.561L50.7006 122.238C50.8055 122.585 50.9577 122.888 50.979 123.287C50.9893 123.589 50.8829 123.882 50.682 124.107C50.4825 124.336 50.2181 124.63 49.9721 124.85C49.8463 124.973 49.694 125.066 49.527 125.121C49.36 125.177 49.1825 125.194 49.008 125.171Z" fill="#FFD89D"/>
<path fill-rule="evenodd" clip-rule="evenodd" d="M41.1434 119.56C41.1434 119.56 39.6011 118.168 41.5833 116.658C43.4458 115.24 44.8072 117.143 44.1901 118.368C44.1798 118.388 44.1743 118.41 44.174 118.433C44.1737 118.456 44.1786 118.478 44.1884 118.499C44.1981 118.52 44.2125 118.538 44.2303 118.552C44.2482 118.566 44.269 118.576 44.2912 118.58C44.4536 118.617 44.5947 118.778 44.3376 119.351C44.3269 119.375 44.3229 119.402 44.326 119.428C44.3291 119.455 44.3392 119.48 44.3553 119.501C44.5836 119.807 45.3445 121.034 43.0477 121.221C43.0272 121.223 43.0066 121.22 42.9872 121.213C42.9677 121.207 42.9498 121.196 42.9345 121.182L41.1434 119.56Z" fill="#5B6475"/>
<path fill-rule="evenodd" clip-rule="evenodd" d="M33.0434 121.604C33.0434 121.604 32.8958 119.827 31.9447 119.248C30.9935 118.668 29.1477 118.176 28.3738 120.108C28.0026 121.029 28.1269 121.468 28.3561 121.674C28.4537 121.766 28.5163 121.889 28.5332 122.021C28.5502 122.154 28.5204 122.289 28.4489 122.402C28.293 122.68 28.2717 123.027 28.744 123.341C28.8113 123.384 28.8691 123.441 28.9142 123.506C28.9593 123.572 28.9908 123.647 29.0067 123.725C29.1301 124.369 29.789 125.915 33.3125 124.225L33.0434 121.604Z" fill="#5B6475"/>
<path fill-rule="evenodd" clip-rule="evenodd" d="M37.1174 118.409C36.4242 118.112 34.9552 117.809 33.8128 119.807C33.7334 119.947 33.6172 120.062 33.4769 120.139C32.7966 120.511 30.8265 121.878 32.6203 124.34C32.7027 124.453 32.7562 124.584 32.7762 124.722C32.8365 125.139 33.0351 126.063 33.6318 126.291C33.8099 126.359 33.9601 126.484 34.0587 126.647C34.4596 127.307 35.6029 128.697 37.5266 127.246C37.6249 127.172 37.7379 127.12 37.8579 127.093L40.5148 126.508C40.6561 126.477 40.803 126.482 40.9417 126.523C41.2665 126.616 41.9226 126.701 42.1666 125.938C42.2164 125.782 42.3087 125.643 42.433 125.538C42.8784 125.159 43.825 124.132 43.1086 122.692C43.0282 122.531 42.9997 122.35 43.0269 122.172C43.1114 121.633 43.155 120.435 42.0358 119.919C41.8671 119.843 41.7287 119.712 41.6423 119.548C41.2711 118.83 40.0527 116.99 37.9099 118.342C37.7931 118.416 37.66 118.461 37.5219 118.473C37.3838 118.485 37.245 118.463 37.1174 118.409Z" fill="#5B6475"/>
<path fill-rule="evenodd" clip-rule="evenodd" d="M36.4344 126.274L36.04 130.19C36.04 130.19 38.1679 130.911 39.5664 130.097L39.1878 126.166L36.4344 126.274Z" fill="#FFD89D"/>
<path fill-rule="evenodd" clip-rule="evenodd" d="M33.0217 147.707C33.0217 147.707 34.0323 158.968 34.6995 162.414C34.6995 162.414 35.1979 162.777 35.9449 162.308L36.8516 147.283L33.0217 147.707Z" fill="#FFD89D"/>
<path fill-rule="evenodd" clip-rule="evenodd" d="M37.5098 148.383L40.2771 160.994C40.2771 160.994 41.0297 161.774 42.0088 160.994L41.5318 147.737L37.5098 148.383Z" fill="#FFD89D"/>
<path fill-rule="evenodd" clip-rule="evenodd" d="M34.0047 130.486L33.3124 130.563C31.9723 132 29.5131 141.876 28.626 143.976L25.017 143.387C24.985 143.38 24.9518 143.383 24.9211 143.393C24.8903 143.404 24.8631 143.423 24.8423 143.449C24.8215 143.474 24.808 143.504 24.8031 143.536C24.7982 143.569 24.8022 143.602 24.8146 143.632C24.9752 144.023 25.5765 145.154 27.9188 145.154C29.0129 145.154 27.3045 146.003 27.9597 146.294C27.9597 146.294 29.3971 145.776 29.3999 144.865C29.3999 144.865 33.523 135.475 34.3703 134.485C35.2176 133.496 34.0047 130.486 34.0047 130.486Z" fill="#FFD89D"/>
<path fill-rule="evenodd" clip-rule="evenodd" d="M33.3171 130.562C33.3171 130.562 36.9845 129.202 41.5633 130.609C41.5633 130.609 42.0764 134.075 41.812 135.725L33.924 136.011L33.3171 130.562Z" fill="#2187FF"/>
<path fill-rule="evenodd" clip-rule="evenodd" d="M41.707 136.808C41.707 136.808 44.2283 144.902 44.6023 150.296C44.6115 150.428 44.5679 150.559 44.4809 150.66C44.394 150.76 44.2708 150.822 44.1383 150.832C43.614 150.869 42.6879 150.999 41.4313 151.418C39.3897 152.096 37.7045 151.872 36.1807 151.434C34.9845 151.091 31.9936 150.791 30.7621 150.677C30.6928 150.671 30.6256 150.65 30.5647 150.617C30.5038 150.583 30.4505 150.537 30.4084 150.482C30.3662 150.426 30.336 150.363 30.3198 150.295C30.3035 150.228 30.3015 150.157 30.3139 150.089C30.6712 148.094 32.0316 141.011 34.0955 136.198L41.707 136.808Z" fill="#2187FF"/>
<path fill-rule="evenodd" clip-rule="evenodd" d="M41.8379 135.539L41.7043 136.808C41.7043 136.808 39.2785 136.817 33.9183 136.637L33.8905 135.719C33.8905 135.719 39.8278 135.835 41.8379 135.539Z" fill="#015FCD"/>
<path fill-rule="evenodd" clip-rule="evenodd" d="M41.8211 122.48C42.4299 124.833 42.2526 127.538 39.4835 128.141C37.5672 128.56 35.5534 126.608 34.9446 124.254C34.3359 121.9 35.378 120.108 37.2776 119.614C39.1773 119.12 41.2124 120.125 41.8211 122.48Z" fill="#FFD89D"/>
<path fill-rule="evenodd" clip-rule="evenodd" d="M41.6144 123.205C41.6144 123.205 41.7072 121.782 42.4144 122.221C43.1216 122.66 42.1406 124.366 41.7016 124.466C41.2627 124.565 41.6144 123.205 41.6144 123.205Z" fill="#FFD89D"/>
<path fill-rule="evenodd" clip-rule="evenodd" d="M35.5403 124.847C35.5403 124.847 35.3278 123.762 34.5585 124.264C33.7892 124.766 35.2573 126.539 36.1611 126.145L35.5403 124.847Z" fill="#FFD89D"/>
<path d="M49.5643 124.683C49.6998 124.353 50.0887 123.458 50.2632 123.276C50.3885 123.144 50.4488 123.024 50.4395 122.905C50.4342 122.852 50.4174 122.8 50.3903 122.754C50.3632 122.708 50.3265 122.668 50.2827 122.638L50.2335 122.597L49.272 123.111L48.8887 123.711L49.0502 123.814L49.4066 123.258L50.2066 122.83C50.2312 122.855 50.246 122.888 50.2483 122.923C50.2375 123.011 50.1934 123.092 50.1249 123.149C49.8938 123.389 49.4391 124.491 49.3824 124.615L49.5643 124.683Z" fill="#FFD89D"/>
<path fill-rule="evenodd" clip-rule="evenodd" d="M34.4013 123.984C34.4013 123.984 36.6035 126.368 37.7477 121.421C37.7477 121.421 38.8891 122.898 39.4097 121.592C39.4097 121.592 41.6833 122.37 41.9339 121.414C42.1845 120.459 38.8613 117.866 36.1886 119.726C33.516 121.587 34.4013 123.984 34.4013 123.984Z" fill="#5B6475"/>
<defs>
<linearGradient id="paint0_linear_130_5750" x1="122.826" y1="172.203" x2="129.588" y2="108.334" gradientUnits="userSpaceOnUse">
<stop stop-color="#5C5E61"/>
<stop offset="1" stop-color="#5C5E61"/>
</linearGradient>
<linearGradient id="paint1_linear_130_5750" x1="-13528.9" y1="10367.6" x2="-12362.3" y2="9483.12" gradientUnits="userSpaceOnUse">
<stop stop-color="white"/>
<stop offset="1" stop-color="#EFEFF4"/>
</linearGradient>
<linearGradient id="paint2_linear_130_5750" x1="-13497.9" y1="8240.66" x2="-12552" y2="7315.6" gradientUnits="userSpaceOnUse">
<stop stop-color="white"/>
<stop offset="1" stop-color="#EFEFF4"/>
</linearGradient>
</defs>
</svg>
